<?xml version="1.0" encoding="UTF-8"?> <svg xmlns="http://www.w3.org/2000/svg" width="36" height="36" viewBox="0 0 36 36" fill="none"><g clip-path="url(#clip0)"><path fill-rule="evenodd" clip-rule="evenodd" d="M7.1715 36H7.17C6.2655 36 5.5245 35.2875 5.4855 34.3815C5.292 29.7015 4.7475 16.4565 4.7475 16.4565L2.1735 21.1155C1.8945 21.624 1.284 21.8445 0.744 21.636L0.7425 21.6345C0.2865 21.4575 0 21.024 0 20.5545L0.0435 20.2395L2.532 11.4555C2.7765 10.5945 3.5625 10.0005 4.458 10.0005H31.542C32.4375 10.0005 33.2235 10.5945 33.468 11.4555L35.9565 20.2395L36 20.5545C36 21.024 35.7135 21.4575 35.2575 21.6345L35.256 21.636C34.716 21.8445 34.1055 21.624 33.8265 21.1155L31.2525 16.4565C31.2525 16.4565 30.708 29.7015 30.5145 34.3815C30.4755 35.2875 29.7345 36 28.83 36H28.8285C27.942 36 27.216 35.3115 27.1485 34.4295C26.9955 32.484 26.5875 27.8295 26.4645 25.9875C26.4135 25.2225 25.854 24.7725 25.2465 24.7725C24.702 24.7725 24.09 25.2225 24.0405 25.9875C23.916 27.8295 23.508 32.484 23.3565 34.4295C23.2875 35.3115 22.5615 36 21.6765 36H21.6735C20.7705 36 20.028 35.2875 19.9905 34.3815C19.7955 29.7015 19.0245 15 19.0245 15H17.0025C17.0025 15 16.2045 29.7015 16.0095 34.3815C15.972 35.2875 15.2295 36 14.3265 36H14.3235C13.4385 36 12.7125 35.3115 12.6435 34.4295C12.492 32.484 12.084 27.8295 11.9595 25.9875C11.91 25.2225 11.298 24.7725 10.7535 24.7725C10.146 24.7725 9.5865 25.2225 9.5355 25.9875C9.4125 27.8295 9.0045 32.484 8.8515 34.4295C8.784 35.3115 8.058 36 7.1715 36ZM10.7475 0C13.2315 0 15.2475 2.016 15.2475 4.5C15.2475 6.984 13.2315 9 10.7475 9C8.265 9 6.2475 6.984 6.2475 4.5C6.2475 2.016 8.265 0 10.7475 0ZM25.2525 0C22.7685 0 20.7525 2.016 20.7525 4.5C20.7525 6.984 22.7685 9 25.2525 9C27.735 9 29.7525 6.984 29.7525 4.5C29.7525 2.016 27.735 0 25.2525 0Z" fill="#29AAE2"></path></g><defs><clipPath id="clip0"><rect width="36" height="36" fill="white"></rect></clipPath></defs></svg>
