<?xml version="1.0" encoding="UTF-8"?> <svg xmlns="http://www.w3.org/2000/svg" width="36" height="36" viewBox="0 0 36 36" fill="none"><path d="M33.5265 18L36 14.874L32.592 12.7695L33.8295 9L29.8935 8.1705L29.7465 4.2105L25.764 4.7565L24.2505 1.0845L20.6955 2.94L18 0L15.3045 2.9415L11.7495 1.086L10.236 4.7565L6.2535 4.212L6.1065 8.172L2.1705 9L3.408 12.7695L0 14.874L2.4735 18L0 21.126L3.408 23.2305L2.1705 27L6.1065 27.8295L6.2535 31.7895L10.236 31.2435L11.7495 34.9155L15.3045 33.06L18 36L20.6955 33.06L24.2505 34.9155L25.764 31.2435L29.7465 31.7895L29.8935 27.8295L33.8295 27L32.592 23.2305L36 21.126L33.5265 18ZM24.462 17.691C25.089 17.775 25.407 18.183 25.407 18.606C25.407 19.0905 24.9915 19.596 24.141 19.6635C23.619 19.704 23.49 20.1315 24.117 20.2725C24.6435 20.3925 24.9405 20.7615 24.9405 21.159C24.9405 21.63 24.522 22.14 23.571 22.3155C22.9965 22.4205 22.9395 22.983 23.547 23.031C24.063 23.07 24.2655 23.25 24.2655 23.499C24.2655 24.198 23.0265 25.4985 20.6265 25.4985C16.875 25.5 15.516 23.25 10.5 23.25V15.804C13.149 15.3975 15.726 14.5785 17.016 10.101C17.3745 8.8545 17.601 7.5 18.7965 7.5C20.5785 7.5 20.742 11.343 20.0625 14.0865C21.0465 14.6025 22.875 14.7885 23.796 14.7495C25.125 14.6955 25.5 15.363 25.5 15.867C25.5 16.6245 24.876 16.8795 24.4845 16.9995C24.0285 17.1405 23.8185 17.6055 24.462 17.691Z" fill="#29AAE2"></path></svg>
