<?xml version="1.0" encoding="UTF-8"?> <svg xmlns="http://www.w3.org/2000/svg" width="36" height="36" viewBox="0 0 36 36" fill="none"><g clip-path="url(#clip0)"><path fill-rule="evenodd" clip-rule="evenodd" d="M23.2755 36H5.80654C6.58954 31.4475 7.15204 26.757 5.17354 23.958C2.67454 20.4225 1.52854 16.845 1.50004 13.6335C1.43254 5.8485 7.84654 -0.0375049 16.8045 -4.92622e-06C27.6585 0.0449951 30.7965 9.23399 31.464 11.9145C31.974 13.968 30.117 14.718 31.215 15.9675C32.109 16.986 32.7675 18.0135 33.8985 19.233C34.3365 19.7055 34.506 20.202 34.5 20.6475C34.491 21.2985 34.0635 21.8445 33.378 22.0845C32.7345 22.3095 32.238 22.5645 31.5555 22.749C31.338 24.489 30.774 26.607 30.3585 28.0845C29.253 32.0145 26.0145 29.673 24.537 31.995C23.898 32.997 23.577 34.602 23.2755 36ZM16.836 23.526C17.0115 23.5245 17.181 23.466 17.2965 23.3625L18.1875 22.776H14.8125L15.7035 23.3625C15.819 23.466 15.9885 23.526 16.1655 23.526H16.836ZM18.219 22.026C18.426 22.0245 18.594 21.858 18.594 21.651C18.594 21.444 18.426 21.276 18.219 21.276H14.8005C14.5935 21.276 14.4255 21.444 14.4255 21.651C14.4255 21.858 14.5935 22.026 14.8005 22.026H18.219ZM18.5895 20.526C18.5895 17.5215 21 16.281 21 13.605C21 10.815 18.7485 9.27599 16.4985 9.27599C14.2485 9.27599 12 10.812 12 13.605C12 16.281 14.4105 17.5635 14.4105 20.526H18.5895ZM22.305 15.1035L24.3285 16.0215L23.709 17.388L21.7605 16.506C21.987 16.056 22.1745 15.594 22.305 15.1035ZM10.6965 15.1035C10.827 15.6015 11.0085 16.05 11.2365 16.506L9.29254 17.388L8.67154 16.0215L10.6965 15.1035ZM24.75 13.776V12.276H22.359C22.4685 12.7665 22.5135 13.2735 22.4985 13.776H24.75ZM10.503 13.776V13.7715C10.488 13.2705 10.533 12.7665 10.641 12.276H8.25004V13.776H10.503ZM21.033 9.70499L22.896 8.38199L23.7645 9.60599L21.8865 10.938C21.6675 10.5015 21.3825 10.089 21.033 9.70499ZM11.967 9.70349C11.622 10.0815 11.34 10.491 11.1135 10.938L9.23704 9.60599L10.104 8.38199L11.967 9.70349ZM18.6195 8.13449L19.614 6.11699L20.9595 6.78149L19.9635 8.799C19.5465 8.52299 19.0935 8.30099 18.6195 8.13449ZM14.3805 8.13299C13.908 8.29799 13.4535 8.51999 13.035 8.79599L12.0405 6.78149L13.386 6.11699L14.3805 8.13299ZM17.25 7.82099C16.749 7.76249 16.269 7.75949 15.75 7.81949V5.52599H17.25V7.82099Z" fill="#29AAE2"></path></g><defs><clipPath id="clip0"><rect width="36" height="36" fill="white"></rect></clipPath></defs></svg>
