<?xml version="1.0" encoding="UTF-8"?> <svg xmlns="http://www.w3.org/2000/svg" width="36" height="36" viewBox="0 0 36 36" fill="none"><g clip-path="url(#clip0)"><path d="M12.0165 9.3225C9.45 9.309 6.2265 10.6995 3.768 13.158C2.8305 14.0955 2.004 15.1905 1.3665 16.419C3.585 14.7405 5.952 14.214 8.721 15.768C9.537 13.6125 10.626 11.418 12.0165 9.3225ZM26.694 23.982C24.42 25.4685 22.1835 26.541 20.2485 27.297C21.8025 30.069 21.2775 32.433 19.5975 34.65C20.826 34.014 21.921 33.1875 22.86 32.247C25.326 29.784 26.718 26.553 26.694 23.982ZM35.922 0.063C35.304 0.021 34.698 0 34.1025 0C21.1995 0 13.8555 9.837 11.1825 17.7495L18.2745 24.843C26.4165 21.924 36 14.8515 36 2.085C36 1.4265 35.9745 0.753 35.922 0.063ZM21.09 14.928C20.5035 14.3415 20.5035 13.3935 21.09 12.807C21.6765 12.2205 22.6245 12.2205 23.211 12.807C23.7975 13.3935 23.7975 14.3415 23.211 14.928C22.6245 15.5145 21.675 15.513 21.09 14.928ZM25.332 10.686C24.1605 9.516 24.1605 7.6155 25.332 6.444C26.5035 5.2725 28.404 5.2725 29.574 6.444C30.7455 7.6155 30.7455 9.5145 29.574 10.686C28.4025 11.8575 26.5035 11.8575 25.332 10.686ZM2.9535 29.367L1.5945 28.008L9.4065 20.226L10.7655 21.585L2.9535 29.367ZM10.422 32.1525L9.063 30.7935L14.517 25.2975L15.876 26.6565L10.422 32.1525ZM1.359 36L0 34.641L9.672 24.984L11.031 26.343L1.359 36Z" fill="#29AAE2"></path></g><defs><clipPath id="clip0"><rect width="36" height="36" fill="white"></rect></clipPath></defs></svg>
