<svg version="1.1" id="Layer_1" xmlns="http://www.w3.org/2000/svg" x="0" y="0" viewBox="0 0 151 105.7" xml:space="preserve"><style>.st0{fill:#27aae1}.st1{fill:none;stroke:#fff;stroke-width:.75;stroke-miterlimit:10}.st3{fill:#fff}.st5{fill:#27aae1;stroke-width:.75}.st5,.st6,.st7{stroke:#27aae1;stroke-miterlimit:10}.st6{stroke-width:1.5;fill:#27aae1}.st7{fill:none}</style><circle class="st0" cx="75.5" cy="53.6" r="46.9"/><circle class="st1" cx="75.5" cy="53.6" r="43.5"/><circle cx="75.5" cy="53.6" r="41.3" fill="none" stroke="#fff" stroke-width="1.5" stroke-miterlimit="10"/><circle class="st1" cx="75.5" cy="53.6" r="39.3"/><path class="st0" d="M43.3 85.8l5.9-5.8 52 .8 5.7 6-3.5 3-4.4 3.1-14.3 5.3-10.5 1.2-6.1-.6-10.6-3.2-8.6-4.7zM36.9 30.3l6.4 3.9 63.7-.1 7.1-4.5-5.9-7.8-9.2-7.5L84.7 9H72.3l-9.1 1.1-11 4.2-8.2 6z"/><path class="st3" d="M41.3 30.4c-.9-.7-1.4-1.5-1.5-2.4-.1-.9.2-1.7.8-2.6.3-.3.6-.7 1-.9l.1-.1s.1-.1.1-.3.1-.2.1-.3c.1-.1.2-.2.3-.2.1 0 .2 0 .4.1.3.1.5.2.8.4.3.2.5.3.6.4.1.1.2.2.2.3s0 .2-.1.3c-.1.2-.4.2-.8.2h-.4c-.3 0-.5.1-.7.1-.2.1-.4.2-.5.3-.2.3-.3.6-.1 1 .1.4.4.7.9 1.1.6.5 1.2.7 1.7.8.6.1 1-.1 1.3-.4.1-.2.2-.3.2-.5s0-.4-.1-.7v-.1c-.1-.3-.1-.5 0-.7.1-.1.2-.2.3-.2.1 0 .2.1.4.2.4.3.6.5.7.7.1.1.1.3.1.4 0 .2-.1.5-.3.9-.2.4-.5.8-.8 1.2-.7.9-1.5 1.4-2.4 1.6-.6.3-1.4.1-2.3-.6zM48.6 22.6l-.3-.4c-.5-.7-.9-1.1-1-1.3s-.3-.3-.4-.3h-.2c-.2 0-.4 0-.6-.2-.1-.1-.2-.3-.1-.4 0-.1.1-.2.3-.3l.2-.2c.5-.4 1-.8 1.5-1.1.8-.6 1.5-1.2 2.2-1.7.1-.1.1-.1.2-.1.1-.1.3-.2.3-.1s.2.1.3.3l.7.9c.2.2.2.4.2.5s-.1.2-.2.3c-.1.1-.3.1-.6-.1-.1 0-.1-.1-.2-.1-.2-.1-.4-.2-.7-.1-.2.1-.5.2-.9.5l-.3.3-.2.2c0 .1.1.2.2.4l.1.2.2.2.3.3c.1 0 .2 0 .3-.1l.2-.2v-.3-.1c-.1-.2 0-.4.2-.6.1-.1.3-.1.4-.1s.3.2.5.5l.2.3.3.4c.1.1.2.2.3.4s.2.2.2.2c.1.2.2.3.2.4 0 .1-.1.2-.2.3-.1.1-.2.1-.3.1-.1 0-.2-.1-.3-.2-.4-.2-.6-.3-.7-.3-.1 0-.2 0-.3.1-.1.1-.1.1-.1.2s.1.2.2.4l.2.2c.3.4.5.6.7.6.2 0 .4 0 .6-.2.3-.2.5-.4.6-.7.2-.3.2-.5.2-.7v-.4c-.1-.3 0-.5.1-.6.1-.1.2-.1.3-.1.1 0 .2.1.3.3.1.2.3.4.5.6.2.2.3.5.4.7.1.1.1.2.1.3s-.1.2-.2.3c0 0-.1 0-.1.1-.3.2-.6.5-.9.7l-1.1.8c-.1.1-.4.3-.8.6s-.8.7-1.2.9c-.2.1-.3.2-.4.2-.1 0-.2-.1-.3-.2-.2-.2-.2-.4-.1-.5 0-.1.1-.1.1-.2s0-.3-.2-.5c-.2-.3-.5-.7-.9-1.3zM62.6 17.8c-.2.1-.3.1-.4.1-.1 0-.2-.1-.3-.2l-1.1-.9c-.1-.1-.2-.2-.4-.3-.5-.4-.8-.6-.9-.5-.1 0-.1.1-.1.2s0 .2.1.4c.2.5.4.9.5 1s.3.2.4.2h.1c.3-.1.4 0 .5.2.1.2.1.4.1.5 0 .1-.2.2-.6.4-.1 0-.2.1-.4.2s-.3-.1-.4-.1c-.1.1-.3.1-.6.3-.3.1-.4.2-.5.2l-.1.1c-.3.1-.6.2-.7.2s-.2-.1-.3-.3c-.1-.2-.1-.4 0-.5l.1-.1c.1-.1 0-.3 0-.5-.1-.3-.2-.7-.5-1.3l-.1-.6c-.3-.8-.6-1.3-.7-1.6-.1-.2-.2-.4-.3-.4h-.2c-.2 0-.4-.1-.5-.3-.1-.2-.1-.3 0-.4 0-.1.2-.2.5-.3.1-.1.3-.1.6-.2s.4-.2.6-.2c.3-.1.7-.3 1-.4l.6-.3c.8-.3 1.5-.4 2.1-.3.6.1 1 .5 1.2 1.1.1.3.2.6.1.8 0 .3-.2.5-.4.8-.1.1-.1.2-.1.2s.1.1.2.1l1.9.9c.1 0 .3.1.5.1s.4.1.4.2c.1.2.1.4 0 .6-.1.2-.3.3-.7.5l-1.2.4zM59.3 15c.3-.1.4-.2.5-.4.1-.2.1-.4 0-.6-.1-.2-.3-.4-.5-.5-.2-.1-.4-.1-.7 0-.1.1-.2.1-.2.2s0 .2.1.4l.2.4c0 .1.1.1.1.2s.1.1.1.2c.1.1.1.2.2.2-.1 0 0 0 .2-.1zM65.8 11.7l-.2-1.2V10c.1-.1.2-.1.3-.2l5.7-.8c.1 0 .2 0 .3.1.1.1.1.2.1.4l.2 1.5c0 .1 0 .2-.1.2s-.1.1-.2.1c-.2 0-.4-.1-.5-.3 0-.1-.1-.1-.1-.2-.1-.2-.3-.3-.4-.4s-.3-.1-.4-.1c-.2 0-.3.1-.3.3 0 .2 0 .6.1 1.2l.2 1.1c.1.7.2 1.2.3 1.5s.2.4.2.5c0 0 .1 0 .2.1.2 0 .3.2.3.4s0 .3-.1.4c-.1.1-.3.1-.5.2h-.2c-.1 0-.2 0-.4.1-.2 0-.4.1-.5.1-.1 0-.2 0-.5.1-.3 0-.5.1-.6.1h-.5c-.1-.1-.1-.2-.2-.3 0-.2 0-.4.2-.5.1 0 .1-.1.2-.1.1-.1.1-.2.1-.5s-.1-.9-.2-1.9c-.1-1-.3-1.5-.4-1.8-.1-.2-.2-.3-.4-.3-.1 0-.3.1-.4.2-.1.1-.2.3-.3.5 0 .1 0 .1-.1.3-.1.3-.2.5-.4.5-.1 0-.2 0-.3-.1-.1-.3-.2-.4-.2-.7zM77 15.7h-1.2c-.2 0-.4 0-.4-.1-.1-.1-.1-.2-.1-.3 0-.2.1-.4.3-.5.1 0 .1-.1.2-.1.1-.1.1-.2.2-.5 0-.3.1-.7.1-1.4v-.5-1.7c0-.3 0-.4-.1-.5 0 0-.1-.1-.2-.1-.2-.1-.3-.3-.3-.5s0-.3.1-.4.2-.1.4-.1h2.6c.2 0 .3 0 .4.1v.5c0 .2-.1.3-.3.4-.1 0-.1.1-.2.1-.1.1-.1.2-.1.5s-.1.8-.1 1.7v1.9c0 .3.1.4.2.5 0 0 .1.1.2.1.2.1.2.2.2.5 0 .2-.1.3-.1.3-.1.1-.3.1-.6.1H77zM82.9 16.3c-.1 0-.2-.1-.5-.1-.2-.1-.5-.1-.6-.1-.3-.1-.4-.1-.5-.2-.1-.1-.1-.2 0-.4s.2-.4.3-.4h.2c.1 0 .2-.2.3-.4.1-.3.2-.7.4-1.4l.1-.5c.2-.9.3-1.4.3-1.7v-.5l-.1-.1c-.2-.2-.3-.3-.2-.6 0-.2.1-.3.2-.3s.2-.1.4 0c0 0 .1 0 .3.1.6.2 1.2.3 1.8.4 1 .2 1.9.4 2.7.6h.2c.2 0 .3.1.3.2v.4l-.3 1.2v.1c-.1.3-.1.4-.2.5-.1.1-.2.1-.3 0-.2 0-.3-.2-.3-.5v-.2c-.1-.2-.2-.4-.4-.6s-.5-.3-1-.4l-.3-.1h-.3c-.1 0-.1.2-.2.4l-.2.4c-.1.2-.1.4 0 .4 0 .1.1.1.2.1h.3c.1 0 .1-.1.2-.2 0 0 0-.1.1-.1.1-.2.3-.3.6-.3.2 0 .3.1.3.2s0 .3-.1.7l-.1.4-.1.4c0 .1-.1.3-.1.4 0 .2 0 .2-.1.2 0 .2-.1.3-.2.4-.1.1-.2.1-.4 0-.1 0-.2-.1-.3-.2-.1-.1-.1-.2-.1-.4s0-.4-.1-.5-.1-.2-.2-.2h-.2c0 .1-.1.2-.1.4l-.1.4-.1.4c-.1.2-.1.4-.1.5 0 .1 0 .2.1.3 0 0 .1.1.2.1.2.1.2.3.1.5 0 .2-.1.3-.2.3h-.8c-.1 0-.2 0-.4-.1-.1.2-.3.2-.4.1zM90.8 18.8c-.5-.2-.9-.4-1.1-.5-.2-.1-.3-.2-.4-.3v-.4c.1-.2.2-.3.4-.3h.2c.1 0 .2-.1.3-.4.1-.2.3-.7.6-1.3l.2-.5c.4-.8.6-1.3.7-1.6s.1-.4.1-.5c0 0-.1-.1-.1-.2-.2-.2-.2-.4-.1-.6.1-.2.2-.3.2-.3.1 0 .2 0 .4.1l.4.2c.3.1.5.2.8.3.3.1.5.2.8.3.3.1.4.2.4.2.2.1.3.2.3.3 0 .1 0 .2-.1.4s-.2.3-.5.3h-.2c-.1 0-.2.2-.3.4-.1.2-.4.8-.7 1.6l-.1.6c-.3.6-.5 1.1-.5 1.3-.1.3-.1.4 0 .5l.1.1c.1.1.1.3 0 .5s-.2.2-.3.3c-.1 0-.3 0-.6-.1l-.2-.1c-.1 0-.2-.1-.4-.2 0 .1-.2 0-.3-.1zM96.8 18.6l.3-.4c.5-.7.8-1.2.9-1.4.1-.2.2-.4.2-.5 0 0 0-.1-.1-.2-.1-.2-.1-.4 0-.6.1-.1.2-.2.3-.2s.2 0 .4.2l.2.2c.5.4 1 .8 1.5 1.1.8.6 1.6 1.1 2.3 1.6.1.1.1.1.2.1.2.1.2.2.2.3 0 .1 0 .2-.2.4l-.7 1c-.2.2-.3.4-.4.4-.1 0-.2 0-.3-.1-.1-.1-.2-.3-.1-.6 0-.1 0-.2.1-.2.1-.2 0-.5-.1-.7-.1-.2-.4-.4-.7-.7l-.3-.3c-.1-.1-.2-.1-.3-.1-.1 0-.2.1-.3.3l-.1.2-.2.2c-.1.2-.2.3-.2.4s0 .1.2.2c.1.1.2.1.3.1.1 0 .2 0 .2-.1 0 0 .1 0 .1-.1.2-.2.4-.2.6 0 .1.1.2.2.2.3s-.1.3-.3.6l-.2.3-.3.4c-.1.1-.2.2-.3.4l-.1.2c-.1.2-.2.3-.3.3-.1 0-.2 0-.4-.1l-.2-.2s0-.2.1-.4.1-.4.1-.5c0-.1-.1-.2-.2-.3-.1-.1-.1-.1-.2 0-.1 0-.2.1-.3.3l-.2.2c-.3.4-.4.6-.4.8s.1.3.4.5c.3.2.5.3.8.4s.5.1.8 0c.1 0 .2-.1.4-.2.3-.1.5-.2.6-.1.1.1.2.2.2.3 0 .1 0 .2-.2.4-.1.2-.3.4-.5.6s-.4.4-.5.6c-.1.1-.2.2-.3.2-.1 0-.2 0-.3-.1 0 0-.1 0-.1-.1-.3-.2-.6-.5-1-.7l-1.1-.8c-.1-.1-.4-.3-.8-.6-.5-.3-.9-.6-1.3-.9-.2-.1-.3-.2-.3-.3 0-.1 0-.2.1-.3.1-.2.3-.3.5-.2h.2c.1 0 .2-.1.4-.3.3-.3.6-.7 1-1.2zM102.6 26.9c-.2-.2-.3-.4-.3-.5s0-.2.2-.3c.2-.2.4-.2.6-.1h.1c.1.1.3 0 .5-.1s.6-.4 1.1-.8c.8-.7 1.4-1.2 1.7-1.5s.4-.5.4-.6v-.1c-.1-.2 0-.4.1-.5.2-.1.3-.2.4-.2s.2.1.4.3c0 0 .1.1.2.3.1.1.2.3.3.4.3.3.6.7.9 1 .3.4.5.6.6.7.8 1 1.2 1.9 1.2 2.7 0 .8-.4 1.6-1.3 2.3-.4.4-.9.6-1.4.8-.5.2-1 .2-1.4.1-.4-.1-.7-.2-1.1-.5s-.7-.6-1.2-1.1c-.1-.1-.3-.3-.5-.6-.3-.3-.5-.6-.6-.8-.1-.1-.3-.3-.4-.5-.3-.2-.4-.4-.5-.4zm5-1.1c-.6.5-1.1.9-1.4 1.2s-.6.6-.8.7c-.1.1-.2.2-.2.3 0 .1 0 .2.1.3.3.3.6.5 1 .4s.8-.3 1.3-.7c.6-.5 1-1 1.1-1.5.2-.5.1-.9-.2-1.3-.1-.1-.2-.1-.2-.1 0 .2-.3.4-.7.7z"/><path class="st0" d="M145.3 37.1H5.7L18.8 54 5.7 70.8h139.6L132.2 54z"/><path d="M141.2 39H101.3c-5.2-8.9-14.8-14.8-25.8-14.8s-20.6 6-25.8 14.8H9.8l11.6 15L9.8 69H49.7c5.2 8.9 14.8 14.8 25.8 14.8s20.6-6 25.8-14.8H141.2l-11.6-15 11.6-15z" fill="#fff" stroke="#fff" stroke-width=".741" stroke-miterlimit="10"/><g><path class="st0" d="M75.5 35.5l-2.8 1.4.6-3.1-2.3-2.1 3.1-.5 1.4-2.8 1.4 2.8 3.1.5-2.3 2.1.6 3.1z"/><path class="st5" d="M61.7 31.6h8.1"/><path class="st6" d="M60.7 33.7h9.1"/><path class="st5" d="M61.7 35.8h8.1"/><g><path class="st5" d="M89.3 35.8h-8.1"/><path class="st6" d="M90.3 33.7h-9.1"/><path class="st5" d="M89.3 31.6h-8.1"/></g></g><g><path class="st0" d="M75.5 76.8l-2.8 1.5.6-3.1L71 73l3.1-.4 1.4-2.8 1.4 2.8 3.1.4-2.3 2.2.6 3.1z"/><path class="st5" d="M61.7 72.9h8.1"/><path class="st6" d="M60.7 75h9.1"/><path class="st5" d="M61.7 77.1h8.1"/><g><path class="st5" d="M89.3 77.1h-8.1"/><path class="st6" d="M90.3 75h-9.1"/><path class="st5" d="M89.3 72.9h-8.1"/></g></g><g><path class="st0" d="M33.1 53.9c0-2.1.6-3.8 1.7-4.9s2.7-1.8 4.7-1.8c.8 0 1.6.1 2.5.3.2 0 .3.1.3.1.1 0 .3-.1.5-.2s.4-.2.5-.2c.2 0 .4.1.6.2.2.1.3.4.4.7.1.5.3 1.1.3 1.6.1.6.1 1 .1 1.3 0 .3-.1.5-.2.7-.1.2-.4.3-.6.3-.4 0-.8-.3-1.2-.8-.2-.2-.3-.4-.4-.5-.4-.4-.7-.7-1.1-.9-.4-.2-.7-.3-1-.3-.7 0-1.2.3-1.6 1-.4.5-.6 1.4-.6 2.5 0 1.4.3 2.6.8 3.5.5.9 1.2 1.4 2.1 1.4.4 0 .7-.1 1-.3.3-.2.6-.5.9-.9 0 0 .1-.1.1-.2.3-.5.7-.7 1.1-.7.3 0 .5.1.6.2.1.1.1.4.1.9 0 .9 0 1.6-.1 1.8s-.2.5-.4.7c-.3.2-.8.4-1.6.5s-1.7.2-2.7.2c-2.2 0-3.9-.5-5-1.6-1.3-1.1-1.8-2.6-1.8-4.6zM49.9 59.9h-2.1c-.5 0-.9-.1-1-.2-.2-.1-.2-.3-.2-.6 0-.5.2-.8.5-.9.1-.1.2-.1.3-.2.2-.1.3-.4.3-.9.1-.5.1-1.4.1-2.7v-.9c0-1.6 0-2.7-.1-3.2 0-.5-.1-.8-.2-.9-.1-.1-.2-.1-.3-.2-.4-.2-.6-.5-.6-.9 0-.3.1-.6.2-.7.1-.1.4-.2.8-.2h9.6c.4 0 .6.1.7.2.1.1.1.3.1.7V50.6c0 .5-.1.8-.2 1s-.3.2-.6.2c-.4 0-.6-.3-.8-.8-.1-.2-.1-.3-.2-.4-.2-.4-.5-.7-.9-.9-.4-.2-1-.3-1.9-.3h-.6c-.3 0-.5 0-.6.1-.1.2-.2.5-.2.9v.8c0 .4 0 .7.1.8.1.1.2.2.5.2.2 0 .3 0 .5-.1.1-.1.2-.2.3-.4 0 0 0-.1.1-.2.1-.5.5-.7.9-.7.3 0 .5.1.6.3.1.2.2.6.2 1.2v2.8c0 .4-.1.6-.2.8-.1.1-.3.2-.7.2-.2 0-.4-.1-.6-.2-.1-.1-.2-.3-.3-.6-.1-.5-.2-.8-.4-.9s-.3-.2-.5-.2-.3.1-.4.2c-.1.1-.1.4-.1.8v1.4c0 .4 0 .7.1.9s.1.3.3.4c.1.1.2.1.3.2.3.1.5.4.5.9 0 .3-.1.5-.2.6-.2.1-.5.2-1.1.2H50.7c-.4 0-.6.1-.8.1zM60.8 54.3v-.9c0-1.6 0-2.6-.1-3.1 0-.5-.1-.8-.2-.9-.1-.1-.2-.1-.3-.2-.4-.2-.6-.5-.6-.9 0-.3.1-.6.2-.7.1-.1.4-.2.8-.2h9.6c.4 0 .6.1.7.2.1.1.1.3.1.7V50.6c0 .5-.1.8-.2 1s-.3.2-.6.2-.6-.3-.8-.8c-.1-.2-.1-.3-.1-.4-.2-.4-.5-.7-.9-.9-.4-.2-1-.3-1.8-.3h-.9c-.2 0-.4.1-.5.2-.1.1-.1.4-.1.8v.9c0 .5 0 .8.1.9s.2.2.5.2c.2 0 .3 0 .5-.1.1-.1.2-.2.3-.4 0 0 0-.1.1-.2.1-.5.5-.7.9-.7.3 0 .5.1.6.3.1.2.2.6.2 1.2v2.8c0 .4-.1.6-.2.8-.1.1-.3.2-.7.2-.2 0-.4-.1-.6-.2-.1-.1-.2-.3-.3-.6-.1-.5-.2-.8-.4-.9s-.3-.2-.5-.2-.3.1-.4.2c-.1.1-.1.4-.1.8v.5c0 .9.1 1.4.3 1.7.2.3.6.4 1.1.4.6 0 1.1-.1 1.7-.3.5-.2.9-.5 1.2-.8.1-.1.2-.3.4-.6.3-.5.6-.8.9-.8.3 0 .5.1.6.2.1.1.2.4.2.7 0 .5 0 .9-.1 1.5 0 .5-.1 1-.1 1.5 0 .3-.1.5-.2.5-.1.1-.3.1-.6.1h-9.9c-.4 0-.7-.1-.8-.2-.2-.1-.2-.3-.2-.6 0-.5.2-.8.5-.9.1-.1.2-.1.3-.2.1-.1.3-.4.3-.9.1-.6.1-1.5.1-2.9zM75.5 60.1c-.6 0-1.1-.2-1.4-.5-.4-.4-.6-.8-.6-1.4 0-.6.2-1 .6-1.4s.9-.5 1.6-.5c.6 0 1.1.2 1.4.5.4.3.5.8.5 1.3 0 .6-.2 1.1-.6 1.5-.3.3-.8.5-1.5.5z"/><g><path class="st0" d="M80.8 59.9c-.5 0-.9-.1-1-.2-.2-.1-.3-.3-.3-.7 0-.5.2-.8.5-1 .1 0 .1-.1.1-.1.2-.1.4-.4.5-.8.1-.4.1-1.3.1-2.5 0-2 0-3.4-.1-4.1-.1-.7-.2-1.2-.3-1.3 0 0-.1-.1-.2-.1-.4-.1-.6-.4-.6-.8s.1-.6.2-.8c.1-.1.4-.2.9-.2H86.3c2.4 0 4.1.5 5.3 1.6s1.8 2.6 1.8 4.7c0 1.1-.2 2-.5 2.9-.4.9-.9 1.6-1.6 2.2-.5.5-1.2.8-2 1s-1.8.3-3 .3h-4.7c-.5 0-.7-.1-.8-.1zm4.4-8.4V55c0 .9.1 1.6.1 2 0 .3.1.6.2.6.1.1.3.1.6.1.8 0 1.4-.3 1.8-.9.4-.6.6-1.5.6-2.7 0-1.4-.3-2.6-.8-3.4s-1.2-1.2-2.1-1.2c-.2 0-.3.1-.4.3.1.1 0 .7 0 1.7zM95.5 54.3v-.9c0-1.6 0-2.6-.1-3.1 0-.5-.1-.8-.2-.9-.1-.1-.2-.1-.3-.2-.4-.2-.6-.5-.6-.9 0-.3.1-.6.2-.7.1-.1.4-.2.8-.2h9.6c.4 0 .6.1.7.2.1.1.1.3.1.7V50.6c0 .5-.1.8-.2 1s-.3.2-.6.2-.6-.3-.8-.8c-.1-.2-.1-.3-.1-.4-.2-.4-.5-.7-.9-.9-.4-.2-1-.3-1.8-.3h-.9c-.2 0-.4.1-.5.2-.1.1-.1.4-.1.8v.9c0 .5 0 .8.1.9s.2.2.5.2c.2 0 .3 0 .5-.1.1-.1.2-.2.3-.4 0 0 0-.1.1-.2.1-.5.5-.7.9-.7.3 0 .5.1.6.3.1.2.2.6.2 1.2v2.8c0 .4-.1.6-.2.8-.1.1-.3.2-.7.2-.2 0-.4-.1-.6-.2-.1-.1-.2-.3-.3-.6-.1-.5-.2-.8-.4-.9s-.3-.2-.5-.2-.3.1-.4.2c-.1.1-.1.4-.1.8v.5c0 .9.1 1.4.3 1.7.2.3.6.4 1.1.4.6 0 1.1-.1 1.7-.3.5-.2.9-.5 1.2-.8.1-.1.2-.3.4-.6.3-.5.6-.8.9-.8.3 0 .5.1.6.2.1.1.2.4.2.7 0 .5 0 .9-.1 1.5 0 .5-.1 1-.1 1.5 0 .3-.1.5-.2.5-.1.1-.3.1-.6.1h-9.9c-.4 0-.7-.1-.8-.2-.2-.1-.2-.3-.2-.6 0-.5.2-.8.5-.9.1-.1.2-.1.3-.2.1-.1.3-.4.3-.9 0-.6.1-1.5.1-2.9zM111.4 47.4h2.7c.4 0 .7.1.8.2.2.1.2.3.2.6s0 .5-.1.7c-.1.1-.3.3-.6.5-.2.1-.4.2-.5.4-.1.1-.1.3-.1.4 0 .2.1.5.3 1.1s.4 1.1.7 1.7c.2.4.4.7.5.9.1.2.3.3.4.3.1 0 .2-.1.3-.3.1-.2.3-.5.5-1 .3-.7.5-1.3.6-1.6s.2-.7.2-.9c0-.4-.2-.8-.6-1.1s-.6-.5-.6-.8c0-.3.1-.6.2-.7.2-.1.4-.2.8-.2h3.7c.3 0 .5.1.7.2.1.1.2.3.2.6 0 .4-.2.7-.5.9-.1 0-.1.1-.1.1-.3.2-.6.7-1.1 1.6-.1.2-.2.3-.2.5-.5.9-1.2 2.3-2.1 4.2-.9 1.9-1.6 3.2-2 3.9-.2.3-.4.6-.6.7-.2.1-.4.2-.7.2-.3 0-.5-.1-.7-.2-.2-.1-.4-.3-.5-.6-.3-.6-.8-1.6-1.5-2.9-.7-1.3-1.3-2.8-2-4.4-.1-.2-.2-.4-.3-.7-.4-1-.8-1.6-1-1.9-.1-.1-.3-.2-.6-.4-.4-.2-.6-.5-.6-.8 0-.4.1-.6.2-.7.1-.1.4-.2.8-.2h1.2c.6-.3 1.4-.3 2-.3z"/></g></g><path class="st7" d="M18.6 43h113.8M18.6 65.2h113.8"/><g><path class="st3" d="M47.2 87.9c-.1 0-.2-.1-.4-.3-.2-.2-.4-.3-.5-.4-.2-.2-.3-.3-.3-.4 0-.1 0-.2.1-.3.2-.2.3-.3.5-.2h.2c.1 0 .2-.1.4-.3s.5-.6.9-1.1l.3-.4c.5-.7.9-1.1 1-1.4.1-.2.2-.4.2-.5 0 0 0-.1-.1-.2-.1-.2-.1-.4 0-.6.1-.1.2-.2.3-.2.1 0 .2 0 .4.2l.2.2 1.5 1.2c.8.6 1.5 1.2 2.2 1.7.1.1.1.1.2.1.1.1.2.2.2.3 0 .1-.1.2-.2.3l-.7.9-.4.4c-.1 0-.2 0-.3-.1-.1-.1-.2-.3-.1-.6 0-.1.1-.2.1-.2 0-.2 0-.5-.1-.7-.1-.2-.3-.4-.7-.7l-.2-.2c-.1-.1-.2-.2-.3-.1-.1 0-.2.1-.3.3l-.3.4c-.1.2-.2.3-.2.4 0 .1 0 .1.1.2s.2.1.2.1c.1 0 .2 0 .2-.1 0 0 .1 0 .1-.1.2-.1.4-.1.6 0 .1.1.2.2.2.3 0 .1-.1.3-.3.6l-.2.3-.3.3c-.1.1-.2.2-.3.4s-.1.3-.1.3c-.1.2-.2.3-.3.3s-.2 0-.4-.1c-.1-.1-.2-.2-.2-.3 0-.1 0-.2.1-.4s.1-.4.1-.5c0-.1 0-.2-.1-.3-.1-.1-.1-.1-.2 0-.1 0-.2.1-.3.3l-.2.3-.2.3c-.1.2-.2.3-.3.4s-.1.2 0 .3c0 0 0 .1.1.2.1.2.1.3-.1.5-.1.1-.2.2-.3.2s-.3-.1-.5-.3l-.2-.1c-.1 0-.2-.1-.3-.3-.2-.1-.4-.2-.5-.3zM62.2 96.1c-.2-.1-.3-.1-.4-.2 0-.1-.1-.2-.1-.4l-.2-1.4c0-.1 0-.3-.1-.5-.1-.6-.2-.9-.3-1h-.2c-.1 0-.1.2-.2.3-.2.5-.3.9-.3 1.1 0 .2.1.3.2.4 0 0 .1 0 .1.1.2.1.3.3.2.5-.1.2-.2.3-.3.4s-.3 0-.7-.1c-.1 0-.2-.1-.4-.2s-.4-.1-.5-.2c-.1-.1-.3-.1-.6-.2s-.4-.1-.6-.2h-.1c-.3-.1-.5-.2-.6-.3-.1-.1-.1-.2 0-.4s.2-.4.4-.4h.2c.1 0 .2-.2.3-.4s.3-.7.5-1.3l.2-.5c.3-.8.5-1.4.5-1.6.1-.3.1-.4 0-.5 0 0-.1-.1-.1-.2-.2-.2-.2-.4-.1-.6.1-.2.1-.3.2-.3s.3 0 .6.1c.1.1.4.1.6.2.3.1.4.2.6.2.3.1.7.2 1.1.4s.6.2.7.2c.8.3 1.4.7 1.7 1.2.3.5.4 1 .2 1.6-.1.3-.3.5-.5.7-.2.2-.5.3-.8.4-.1 0-.2 0-.2.1v.2l.8 2c0 .1.1.2.3.4.2.2.2.3.2.5-.1.2-.2.4-.4.4-.2.1-.5 0-.8-.1l-1.1-.4zm-.6-4.4c.3.1.5.1.6 0 .2-.1.3-.2.4-.5.1-.3.1-.5 0-.7s-.2-.4-.5-.5h-.3c-.1 0-.1.2-.2.4l-.2.4c0 .1 0 .1-.1.2 0 .1-.1.1-.1.2-.1.1-.1.2 0 .3.1.1.2.2.4.2zM72.5 95.1v-.5-1.7c0-.3-.1-.4-.1-.5 0 0-.1-.1-.2-.1-.2-.1-.3-.3-.3-.5s0-.3.1-.4c.1-.1.2-.1.4-.1h.3c.7 0 1.3 0 1.9.1h3c.2 0 .3 0 .4.1s.1.2.1.4v1.3c0 .3 0 .4-.1.5s-.2.1-.3.1c-.2 0-.3-.1-.4-.4 0-.1 0-.2-.1-.2-.1-.2-.2-.4-.5-.5-.2-.1-.5-.2-1-.2h-.4-.1c-.1 0-.2 0-.3.1 0 .1-.1.2-.1.4v.5c0 .3 0 .4.1.5s.1 0 .3 0c.1 0 .2 0 .3-.1l.2-.2v-.1c.1-.2.3-.4.5-.4s.3.1.3.1.1.3.1.7v1.6c0 .2 0 .3-.1.4-.1.1-.2.1-.4.1-.1 0-.2 0-.3-.1-.1-.1-.1-.2-.2-.3-.1-.2-.1-.4-.2-.5-.1-.1-.2-.1-.3-.1-.1 0-.2 0-.2.1s-.1.2-.1.4v.3c0 .5 0 .8.2.9s.3.2.6.2.6 0 .9-.2c.3-.1.5-.2.6-.4.1-.1.1-.2.2-.3.2-.3.3-.4.5-.4.1 0 .2 0 .3.1.1.1.1.2.1.4v.8c0 .3-.1.6-.1.8 0 .1-.1.2-.1.3-.1 0-.2.1-.3.1h-5.2c-.2 0-.4 0-.4-.1-.1-.1-.1-.2-.1-.3 0-.2.1-.4.3-.5.1 0 .1-.1.2-.1.1-.1.1-.2.2-.5-.2-.4-.2-.9-.2-1.6zM87.4 96.7c-.5.1-1 .2-1.5.2h-.2s-.1 0-.1.1c-.1 0-.1.1-.1.1-.2 0-.3 0-.4-.2-.1-.2-.2-.5-.4-.9-.1-.4-.1-.6-.1-.8s.1-.2.3-.3c.1 0 .3 0 .5.2.1.1.3.2.3.3.2.1.4.2.7.3h.8c.2-.1.3-.1.4-.2s.1-.2.1-.4c-.1-.2-.4-.4-1-.4h-.5c-.7-.1-1.2-.2-1.5-.5-.3-.2-.6-.6-.7-1.1-.2-.7-.1-1.3.2-1.9.3-.6.8-.9 1.5-1.1.2-.1.5-.1.8-.1h.5c.1 0 .2-.1.3-.2.1-.1.2-.1.3-.2h.2s.1.2.2.3c.2.3.3.6.4.9.1.3.2.4.2.5 0 .1 0 .2-.1.3s-.2.1-.3.2c-.1 0-.3 0-.4-.1-.2-.1-.3-.2-.4-.2-.2-.1-.5-.2-.7-.2h-.6c-.2 0-.3.1-.3.2-.1.1-.1.2-.1.3.1.2.4.3.9.4.2 0 .4 0 .6.1.7.1 1.3.3 1.6.5.3.2.6.6.7 1.1.2.7.1 1.3-.2 1.8-.4.3-1 .7-1.9 1zM99 88l-.1.1c-.2.2-.4.3-.4.4 0 .1.1.2.2.5.2.3.4.6.6.7.2.1.3.2.5.1 0 0 .1 0 .1-.1.2-.1.4-.1.5.1.1.2.2.3.1.4 0 .1-.2.3-.5.5-.1.1-.2.1-.4.3s-.3.2-.4.3c-.1.1-.3.2-.5.4s-.4.3-.5.3l-.1.1c-.3.2-.5.3-.6.3-.1 0-.2-.1-.3-.2-.1-.2-.2-.4-.1-.5 0-.1.1-.1.1-.2s0-.3-.1-.5-.4-.6-.8-1.2l-.3-.4c-.5-.7-.8-1.2-1-1.4-.2-.2-.3-.3-.4-.3h-.2c-.2 0-.4 0-.6-.2-.1-.1-.1-.3-.1-.4s.2-.2.4-.4c.1-.1.3-.2.5-.3.2-.2.4-.3.5-.3.2-.1.4-.2.6-.4.2-.2.3-.3.4-.3.2-.1.4-.2.5-.2.1 0 .2.1.3.2.1.2.1.4 0 .6v.1c-.1.1-.1.3-.1.4 0 .2.2.4.4.8.1.2.2.3.4.2.1 0 .4-.2.8-.5l.5-.3c.3-.2.4-.3.5-.4 0-.1 0-.2-.2-.5l-.1-.2c-.1-.2-.2-.3-.3-.4-.1-.1-.2-.1-.3-.1h-.1c-.2 0-.4-.1-.5-.2-.1-.2-.1-.3-.1-.4 0-.1.1-.2.3-.3 0 0 .2-.1.4-.3s.5-.3.7-.5c.2-.1.3-.2.5-.4.2-.1.3-.2.3-.2.2-.2.4-.2.5-.2.1 0 .2.1.3.2.1.2.1.3 0 .5v.1c0 .1 0 .3.2.6.1.3.5.8 1.1 1.6.4.6.8 1.1 1 1.3.2.2.4.3.5.3h.2c.2 0 .3 0 .5.2.1.1.1.3.1.4 0 .1-.1.2-.3.3 0 0-.1 0-.1.1-.4.3-.9.6-1.4.9l-.1.1c-.1.1-.2.1-.3.2-.1.1-.2.2-.3.2-.2.1-.3.2-.4.1-.1 0-.2-.1-.3-.2-.1-.1-.1-.3-.1-.5v-.1c0-.1 0-.2-.1-.4-.1-.1-.2-.3-.3-.5 0 0-.1-.1-.1-.2-.1-.1-.1-.2-.1-.2-.1-.1-.2-.2-.3-.2s-.4.2-.8.5l-.4.1z"/></g></svg>