<svg width="148" height="100" viewBox="0 0 148 100" fill="none" xmlns="http://www.w3.org/2000/svg">
<g clip-path="url(#clip0_431_920)">
<path d="M73.9999 100C101.461 100 123.722 77.6142 123.722 50C123.722 22.3858 101.461 0 73.9999 0C46.5392 0 24.2778 22.3858 24.2778 50C24.2778 77.6142 46.5392 100 73.9999 100Z" fill="#0E3B66"/>
<path d="M73.9998 96.375C99.4698 96.375 120.117 75.6121 120.117 49.9998C120.117 24.3874 99.4698 3.62451 73.9998 3.62451C48.5298 3.62451 27.8823 24.3874 27.8823 49.9998C27.8823 75.6121 48.5298 96.375 73.9998 96.375Z" stroke="white" stroke-width="0.75" stroke-miterlimit="10"/>
<path d="M73.9999 94.0299C98.1818 94.0299 117.785 74.3171 117.785 50.0001C117.785 25.6831 98.1818 5.97021 73.9999 5.97021C49.8181 5.97021 30.2148 25.6831 30.2148 50.0001C30.2148 74.3171 49.8181 94.0299 73.9999 94.0299Z" stroke="white" stroke-width="1.5" stroke-miterlimit="10"/>
<path d="M74.0002 91.8978C97.011 91.8978 115.665 73.1396 115.665 50.0002C115.665 26.8608 97.011 8.10254 74.0002 8.10254C50.9894 8.10254 32.3354 26.8608 32.3354 50.0002C32.3354 73.1396 50.9894 91.8978 74.0002 91.8978Z" stroke="white" stroke-width="0.75" stroke-miterlimit="10"/>
<path d="M39.8622 84.3285L46.1173 78.1451L101.246 78.998L107.289 85.3946L103.579 88.5929L98.9138 91.8978L83.7534 97.5481L72.6216 98.8274L66.1545 98.1878L54.9167 94.7762L45.7992 89.7656L39.8622 84.3285ZM33.0771 25.16L39.8622 29.3178L107.395 29.2112L114.922 24.4138L108.667 16.0982L98.9138 8.10247L83.7534 2.45215H70.6072L60.9597 3.62486L49.2978 8.10247L40.6044 14.4991L33.0771 25.16Z" fill="#0E3B66"/>
<path d="M37.7422 25.2666C36.788 24.5204 36.2579 23.6675 36.1519 22.708C36.0459 21.7485 36.364 20.8956 37.0001 19.9362C37.3181 19.6163 37.6362 19.1899 38.0602 18.9767L38.1663 18.8701C38.1663 18.8701 38.2723 18.7634 38.2723 18.5502C38.2723 18.337 38.3783 18.337 38.3783 18.2304C38.4843 18.1238 38.5903 18.0172 38.6963 18.0172C38.8024 18.0172 38.9084 18.0172 39.1204 18.1238C39.4385 18.2304 39.6505 18.337 39.9685 18.5502C40.2866 18.7634 40.4986 18.8701 40.6046 18.9767C40.7107 19.0833 40.8167 19.1899 40.8167 19.2965C40.8167 19.4031 40.8167 19.5097 40.7107 19.6163C40.6047 19.8295 40.2866 19.8295 39.8625 19.8295H39.4385C39.1204 19.8295 38.9084 19.9362 38.6963 19.9362C38.4843 20.0428 38.2723 20.1494 38.1663 20.256C37.9542 20.5758 37.8482 20.8956 38.0602 21.3221C38.1663 21.7485 38.4843 22.0684 39.0144 22.4948C39.6505 23.0278 40.2866 23.2411 40.8167 23.3477C41.4528 23.4543 41.8769 23.2411 42.1949 22.9212C42.3009 22.708 42.4069 22.6014 42.4069 22.3882C42.4069 22.175 42.4069 21.9617 42.3009 21.6419V21.5353C42.1949 21.2155 42.1949 21.0023 42.3009 20.789C42.4069 20.6824 42.513 20.5758 42.619 20.5758C42.725 20.5758 42.831 20.6824 43.043 20.789C43.4671 21.1089 43.6791 21.3221 43.7852 21.5353C43.8912 21.6419 43.8912 21.8551 43.8912 21.9617C43.8912 22.175 43.7852 22.4948 43.5731 22.9212C43.3611 23.3477 43.043 23.7741 42.725 24.2006C41.9829 25.16 41.1347 25.6931 40.1806 25.9063C39.5445 26.2261 38.6963 26.0129 37.7422 25.2666ZM45.4814 16.9511L45.1634 16.5246C44.6333 15.7784 44.2092 15.3519 44.1032 15.1387C43.9972 14.9255 43.7852 14.8189 43.6791 14.8189H43.4671C43.2551 14.8189 43.043 14.8189 42.831 14.6057C42.725 14.4991 42.619 14.2858 42.725 14.1792C42.725 14.0726 42.831 13.966 43.043 13.8594L43.2551 13.6462C43.7852 13.2197 44.3152 12.7933 44.8453 12.4735C45.6935 11.8338 46.4356 11.1942 47.1777 10.6611C47.2837 10.5545 47.2837 10.5545 47.3897 10.5545C47.4958 10.4479 47.7078 10.3413 47.7078 10.4479C47.7078 10.5545 47.9198 10.5545 48.0259 10.7677L48.768 11.7272C48.98 11.9404 48.98 12.1536 48.98 12.2603C48.98 12.3669 48.874 12.4735 48.768 12.5801C48.662 12.6867 48.4499 12.6867 48.1319 12.4735C48.0259 12.4735 48.0259 12.3669 47.9198 12.3669C47.7078 12.2603 47.4958 12.1536 47.1777 12.2603C46.9657 12.3669 46.6476 12.4735 46.2236 12.7933L45.9055 13.1131L45.6935 13.3263C45.6935 13.433 45.7995 13.5396 45.9055 13.7528L46.0115 13.966L46.2236 14.1792L46.5416 14.4991C46.6476 14.4991 46.7536 14.4991 46.8597 14.3924L47.0717 14.1792V13.8594V13.7528C46.9657 13.5396 47.0717 13.3263 47.2837 13.1131C47.3897 13.0065 47.6018 13.0065 47.7078 13.0065C47.8138 13.0065 48.0259 13.2197 48.2379 13.5396L48.4499 13.8594L48.768 14.2858C48.874 14.3924 48.98 14.4991 49.086 14.7123C49.192 14.9255 49.2981 14.9255 49.2981 14.9255C49.4041 15.1387 49.5101 15.2453 49.5101 15.3519C49.5101 15.4585 49.4041 15.5652 49.2981 15.6718C49.192 15.7784 49.086 15.7784 48.98 15.7784C48.874 15.7784 48.768 15.6718 48.662 15.5652C48.2379 15.3519 48.0259 15.2453 47.9198 15.2453C47.8138 15.2453 47.7078 15.2453 47.6018 15.3519C47.4958 15.4585 47.4958 15.4585 47.4958 15.5652C47.4958 15.6718 47.6018 15.7784 47.7078 15.9916L47.9198 16.2048C48.2379 16.6313 48.4499 16.8445 48.662 16.8445C48.874 16.8445 49.086 16.8445 49.2981 16.6313C49.6161 16.418 49.8281 16.2048 49.9342 15.885C50.1462 15.5652 50.1462 15.3519 50.1462 15.1387V14.7123C50.0402 14.3924 50.1462 14.1792 50.2522 14.0726C50.3582 13.966 50.4642 13.966 50.5703 13.966C50.6763 13.966 50.7823 14.0726 50.8883 14.2858C50.9943 14.4991 51.2064 14.7123 51.4184 14.9255C51.6304 15.1387 51.7365 15.4585 51.8425 15.6718C51.9485 15.7784 51.9485 15.885 51.9485 15.9916C51.9485 16.0982 51.8425 16.2048 51.7365 16.3114C51.7365 16.3114 51.6304 16.3114 51.6304 16.418C51.3124 16.6313 50.9943 16.9511 50.6763 17.1643L49.5101 18.0172C49.4041 18.1238 49.086 18.337 48.662 18.6568C48.2379 18.9767 47.8138 19.4031 47.3897 19.6163C47.1777 19.7229 47.0717 19.8295 46.9657 19.8295C46.8597 19.8295 46.7536 19.7229 46.6476 19.6163C46.4356 19.4031 46.4356 19.1899 46.5416 19.0833C46.5416 18.9767 46.6476 18.9767 46.6476 18.8701C46.6476 18.7635 46.6476 18.5502 46.4356 18.337C46.2236 18.0172 45.9055 17.5907 45.4814 16.9511ZM60.3238 11.8338C60.1118 11.9404 60.0058 11.9404 59.8998 11.9404C59.7938 11.9404 59.6877 11.8338 59.5817 11.7272L58.4155 10.7677C58.3095 10.6611 58.2035 10.5545 57.9915 10.4479C57.4614 10.0214 57.1433 9.80823 57.0373 9.91483C56.9313 9.91483 56.9313 10.0214 56.9313 10.1281C56.9313 10.2347 56.9313 10.3413 57.0373 10.5545C57.2493 11.0875 57.4614 11.514 57.5674 11.6206C57.6734 11.7272 57.8855 11.8338 57.9915 11.8338H58.0975C58.4155 11.7272 58.5216 11.8338 58.6276 12.047C58.7336 12.2603 58.7336 12.4735 58.7336 12.5801C58.7336 12.6867 58.5216 12.7933 58.0975 13.0065C57.9915 13.0065 57.8855 13.1131 57.6734 13.2197C57.4614 13.3263 57.3554 13.1131 57.2493 13.1131C57.1433 13.2197 56.9313 13.2197 56.6132 13.433C56.2952 13.5396 56.1892 13.6462 56.0832 13.6462L55.9771 13.7528C55.6591 13.8594 55.341 13.966 55.235 13.966C55.129 13.966 55.023 13.8594 54.917 13.6462C54.811 13.433 54.811 13.2197 54.917 13.1131L55.023 13.0065C55.129 12.8999 55.023 12.6867 55.023 12.4735C54.917 12.1536 54.811 11.7272 54.4929 11.0875L54.3869 10.4479C54.0688 9.59501 53.7508 9.06196 53.6448 8.74213C53.5387 8.52891 53.4327 8.31569 53.3267 8.31569H53.1147C52.9026 8.31569 52.6906 8.20908 52.5846 7.99586C52.4786 7.78264 52.4786 7.67603 52.5846 7.56942C52.5846 7.46281 52.7966 7.3562 53.1147 7.24959C53.2207 7.14298 53.4327 7.14298 53.7508 7.03637C54.0688 6.92976 54.1748 6.82315 54.3869 6.82315C54.7049 6.71654 55.129 6.50332 55.4471 6.39671L56.0832 6.07688C56.9313 5.75705 57.6734 5.65044 58.3095 5.75705C58.9456 5.86366 59.3697 6.2901 59.5817 6.92976C59.6877 7.24959 59.7938 7.56942 59.6877 7.78264C59.6877 8.10247 59.4757 8.31569 59.2637 8.63552C59.1577 8.74213 59.1577 8.84874 59.1577 8.84874C59.1577 8.84874 59.2637 8.95535 59.3697 8.95535L61.384 9.91483C61.49 9.91483 61.7021 10.0214 61.9141 10.0214C62.1261 10.0214 62.3382 10.1281 62.3382 10.2347C62.4442 10.4479 62.4442 10.6611 62.3382 10.8743C62.2322 11.0875 62.0201 11.1942 61.5961 11.4074L60.3238 11.8338ZM56.8253 8.84874C57.1433 8.74213 57.2493 8.63552 57.3554 8.4223C57.4614 8.20908 57.4614 7.99586 57.3554 7.78264C57.2493 7.56942 57.0373 7.3562 56.8253 7.24959C56.6132 7.14298 56.4012 7.14298 56.0832 7.24959C55.9771 7.3562 55.8711 7.3562 55.8711 7.46281C55.8711 7.56942 55.8711 7.67603 55.9771 7.88925L56.1892 8.31569C56.1892 8.4223 56.2952 8.4223 56.2952 8.52891C56.2952 8.63552 56.4012 8.63552 56.4012 8.74213C56.5072 8.84874 56.5072 8.95535 56.6132 8.95535C56.5072 8.95535 56.6132 8.95535 56.8253 8.84874ZM63.7164 5.33061L63.5044 4.0513V3.51825C63.6104 3.41164 63.7164 3.41164 63.8224 3.30503L69.8654 2.45215C69.9714 2.45215 70.0774 2.45215 70.1834 2.55876C70.2895 2.66537 70.2895 2.77198 70.2895 2.9852L70.5015 4.58434C70.5015 4.69095 70.5015 4.79756 70.3955 4.79756C70.2895 4.79756 70.2895 4.90417 70.1834 4.90417C69.9714 4.90417 69.7594 4.79756 69.6534 4.58434C69.6534 4.47774 69.5473 4.47773 69.5473 4.37112C69.4413 4.15791 69.2293 4.0513 69.1233 3.94469C69.0173 3.83808 68.8052 3.83808 68.6992 3.83808C68.4872 3.83808 68.3812 3.94469 68.3812 4.15791C68.3812 4.37113 68.3811 4.79756 68.4872 5.43722L68.6992 6.60993C68.8052 7.3562 68.9112 7.88925 69.0173 8.20908C69.1233 8.52891 69.2293 8.63552 69.2293 8.74213C69.2293 8.74213 69.3353 8.74213 69.4413 8.84874C69.6534 8.84874 69.7594 9.06196 69.7594 9.27518C69.7594 9.4884 69.7594 9.59501 69.6534 9.70162C69.5473 9.80823 69.3353 9.80823 69.1233 9.91483H68.9112C68.8052 9.91483 68.6992 9.91483 68.4872 10.0214C68.2751 10.0214 68.0631 10.1281 67.9571 10.1281C67.8511 10.1281 67.745 10.1281 67.427 10.2347C67.1089 10.2347 66.8969 10.3413 66.7909 10.3413H66.2608C66.1548 10.2347 66.1548 10.1281 66.0488 10.0214C66.0488 9.80822 66.0488 9.59501 66.2608 9.4884C66.3668 9.4884 66.3668 9.38179 66.4728 9.38179C66.5789 9.27518 66.5789 9.16857 66.5789 8.84874C66.5789 8.52891 66.4728 7.88925 66.3668 6.82315C66.2608 5.75705 66.0488 5.224 65.9428 4.90417C65.8367 4.69095 65.7307 4.58434 65.5187 4.58434C65.4127 4.58434 65.2006 4.69095 65.0946 4.79756C64.9886 4.90417 64.8826 5.11739 64.7766 5.33061C64.7766 5.43722 64.7766 5.43722 64.6705 5.65044C64.5645 5.97027 64.4585 6.18349 64.2465 6.18349C64.1405 6.18349 64.0344 6.18349 63.9284 6.07688C63.8224 5.75705 63.7164 5.65044 63.7164 5.33061ZM75.5903 9.59501H74.3181C74.1061 9.59501 73.894 9.59501 73.894 9.4884C73.788 9.38179 73.788 9.27518 73.788 9.16857C73.788 8.95535 73.894 8.74213 74.1061 8.63552C74.2121 8.63552 74.2121 8.52891 74.3181 8.52891C74.4241 8.4223 74.4241 8.31569 74.5302 7.99586C74.5302 7.67603 74.6362 7.24959 74.6362 6.50332V5.97027V4.15791C74.6362 3.83808 74.6362 3.73147 74.5302 3.62486C74.5302 3.62486 74.4241 3.51825 74.3181 3.51825C74.1061 3.41164 74.0001 3.19842 74.0001 2.9852C74.0001 2.77198 74.0001 2.66537 74.1061 2.55876C74.2121 2.45215 74.3181 2.45215 74.5302 2.45215H77.2866C77.4986 2.45215 77.6047 2.45215 77.7107 2.55876V3.09181C77.7107 3.30503 77.6046 3.41164 77.3926 3.51825C77.2866 3.51825 77.2866 3.62486 77.1806 3.62486C77.0746 3.73147 77.0746 3.83808 77.0746 4.15791C77.0746 4.47774 76.9685 5.01078 76.9685 5.97027V7.99586C76.9685 8.31569 77.0746 8.4223 77.1806 8.52891C77.1806 8.52891 77.2866 8.63552 77.3926 8.63552C77.6046 8.74213 77.6046 8.84874 77.6046 9.16857C77.6046 9.38179 77.4986 9.4884 77.4986 9.4884C77.3926 9.59501 77.1806 9.59501 76.8625 9.59501H75.5903ZM81.8453 10.2347C81.7393 10.2347 81.6333 10.1281 81.3152 10.1281C81.1032 10.0214 80.7852 10.0214 80.6791 10.0214C80.3611 9.91483 80.2551 9.91483 80.1491 9.80822C80.043 9.70161 80.043 9.59501 80.1491 9.38179C80.2551 9.16857 80.3611 8.95535 80.4671 8.95535H80.6791C80.7852 8.95535 80.8912 8.74213 80.9972 8.52891C81.1032 8.20908 81.2092 7.78264 81.4213 7.03637L81.5273 6.50332C81.7393 5.54383 81.8453 5.01078 81.8453 4.69095V4.15791L81.7393 4.0513C81.5273 3.83808 81.4213 3.73147 81.5273 3.41164C81.5273 3.19842 81.6333 3.09181 81.7393 3.09181C81.8453 3.09181 81.9514 2.9852 82.1634 3.09181C82.1634 3.09181 82.2694 3.09181 82.4814 3.19842C83.1175 3.41164 83.7536 3.51825 84.3897 3.62486C85.4499 3.83808 86.4041 4.0513 87.2522 4.26452H87.4642C87.6763 4.26452 87.7823 4.37112 87.7823 4.47773V4.90417L87.4642 6.18349V6.2901C87.3582 6.60993 87.3582 6.71654 87.2522 6.82315C87.1462 6.92976 87.0402 6.92976 86.9342 6.82315C86.7221 6.82315 86.6161 6.60993 86.6161 6.2901V6.07688C86.5101 5.86366 86.4041 5.65044 86.192 5.43722C85.98 5.224 85.662 5.11739 85.1319 5.01078L84.8138 4.90417H84.4958C84.3897 4.90417 84.3897 5.11739 84.2837 5.33061L84.0717 5.75705C83.9657 5.97027 83.9657 6.18349 84.0717 6.18349C84.0717 6.2901 84.1777 6.2901 84.2837 6.2901H84.6018C84.7078 6.2901 84.7078 6.18349 84.8138 6.07688C84.8138 6.07688 84.8138 5.97027 84.9198 5.97027C85.0258 5.75705 85.2379 5.65044 85.5559 5.65044C85.768 5.65044 85.874 5.75705 85.874 5.86366C85.874 5.97027 85.874 6.18349 85.768 6.60993L85.662 7.03637L85.5559 7.46281C85.5559 7.56942 85.4499 7.78264 85.4499 7.88925C85.4499 8.10247 85.4499 8.10247 85.3439 8.10247C85.3439 8.31569 85.2379 8.4223 85.1319 8.52891C85.0259 8.63552 84.9198 8.63552 84.7078 8.52891C84.6018 8.52891 84.4958 8.4223 84.3897 8.31569C84.2837 8.20908 84.2837 8.10247 84.2837 7.88925C84.2837 7.67603 84.2837 7.46281 84.1777 7.3562C84.0717 7.24959 84.0717 7.14298 83.9657 7.14298H83.7536C83.7536 7.24959 83.6476 7.3562 83.6476 7.56942L83.5416 7.99586L83.4356 8.4223C83.3296 8.63552 83.3296 8.84874 83.3296 8.95535C83.3296 9.06196 83.3296 9.16857 83.4356 9.27518C83.4356 9.27518 83.5416 9.38179 83.6476 9.38179C83.8597 9.4884 83.8597 9.70162 83.7536 9.91483C83.7536 10.1281 83.6476 10.2347 83.5416 10.2347H82.6935C82.5875 10.2347 82.4814 10.2347 82.2694 10.1281C82.1634 10.3413 81.9514 10.3413 81.8453 10.2347ZM90.2207 12.8999C89.6906 12.6867 89.2665 12.4735 89.0545 12.3669C88.8425 12.2603 88.7365 12.1536 88.6304 12.047V11.6206C88.7365 11.4074 88.8425 11.3008 89.0545 11.3008H89.2665C89.3726 11.3008 89.4786 11.1942 89.5846 10.8743C89.6906 10.6611 89.9026 10.1281 90.2207 9.4884L90.4327 8.95535C90.8568 8.10247 91.0688 7.56942 91.1748 7.24959C91.2809 6.92976 91.2809 6.82315 91.2809 6.71654C91.2809 6.71654 91.1748 6.60993 91.1748 6.50332C90.9628 6.2901 90.9628 6.07688 91.0688 5.86366C91.1749 5.65044 91.2809 5.54383 91.2809 5.54383C91.3869 5.54383 91.4929 5.54383 91.7049 5.65044L92.129 5.86366C92.4471 5.97027 92.6591 6.07688 92.9771 6.18349C93.2952 6.2901 93.5072 6.39671 93.8253 6.50332C94.1433 6.60993 94.2493 6.71654 94.2493 6.71654C94.4614 6.82315 94.5674 6.92976 94.5674 7.03637C94.5674 7.14298 94.5674 7.24959 94.4614 7.46281C94.3554 7.67603 94.2493 7.78264 93.9313 7.78264H93.7193C93.6132 7.78264 93.5072 7.99586 93.4012 8.20908C93.2952 8.4223 92.9771 9.06196 92.6591 9.91483L92.5531 10.5545C92.235 11.1942 92.023 11.7272 92.023 11.9404C91.917 12.2603 91.917 12.3669 92.023 12.4735L92.129 12.5801C92.235 12.6867 92.235 12.8999 92.129 13.1131C92.023 13.3263 91.917 13.3263 91.811 13.433C91.7049 13.433 91.4929 13.433 91.1748 13.3263L90.9628 13.2197C90.8568 13.2197 90.7508 13.1131 90.5387 13.0065C90.5387 13.1131 90.3267 13.0065 90.2207 12.8999ZM96.5817 12.6867L96.8998 12.2603C97.4299 11.514 97.7479 10.9809 97.8539 10.7677C97.9599 10.5545 98.066 10.3413 98.066 10.2347C98.066 10.2347 98.066 10.1281 97.9599 10.0214C97.8539 9.80822 97.8539 9.59501 97.9599 9.38179C98.066 9.27518 98.172 9.16857 98.278 9.16857C98.384 9.16857 98.49 9.16857 98.7021 9.38179L98.9141 9.59501C99.4442 10.0214 99.9743 10.4479 100.504 10.7677C101.353 11.4074 102.201 11.9404 102.943 12.4735C103.049 12.5801 103.049 12.5801 103.155 12.5801C103.367 12.6867 103.367 12.7933 103.367 12.8999C103.367 13.0065 103.367 13.1131 103.155 13.3263L102.413 14.3924C102.201 14.6057 102.095 14.8189 101.989 14.8189C101.883 14.8189 101.777 14.8189 101.671 14.7123C101.565 14.6057 101.459 14.3924 101.565 14.0726C101.565 13.966 101.565 13.8594 101.671 13.8594C101.777 13.6462 101.671 13.3263 101.565 13.1131C101.459 12.8999 101.14 12.6867 100.822 12.3669L100.504 12.047C100.398 11.9404 100.292 11.9404 100.186 11.9404C100.08 11.9404 99.9743 12.047 99.8683 12.2603L99.7622 12.4735L99.5502 12.6867C99.4442 12.8999 99.3382 13.0065 99.3382 13.1131C99.3382 13.2197 99.3382 13.2197 99.5502 13.3263C99.6562 13.433 99.7622 13.433 99.8683 13.433C99.9743 13.433 100.08 13.433 100.08 13.3263C100.08 13.3263 100.186 13.3263 100.186 13.2197C100.398 13.0065 100.61 13.0065 100.822 13.2197C100.928 13.3263 101.034 13.433 101.034 13.5396C101.034 13.6462 100.928 13.8594 100.716 14.1792L100.504 14.4991L100.186 14.9255C100.08 15.0321 99.9743 15.1387 99.8683 15.3519L99.7622 15.5652C99.6562 15.7784 99.5502 15.885 99.4442 15.885C99.3382 15.885 99.2322 15.885 99.0201 15.7784L98.8081 15.5652C98.8081 15.5652 98.8081 15.3519 98.9141 15.1387C99.0201 14.9255 99.0201 14.7123 99.0201 14.6057C99.0201 14.4991 98.9141 14.3924 98.8081 14.2858C98.7021 14.1792 98.7021 14.1792 98.5961 14.2858C98.49 14.2858 98.384 14.3924 98.278 14.6057L98.066 14.8189C97.7479 15.2453 97.6419 15.4585 97.6419 15.6718C97.6419 15.885 97.7479 15.9916 98.066 16.2048C98.384 16.418 98.5961 16.5246 98.9141 16.6313C99.2322 16.7379 99.4442 16.7379 99.7622 16.6313C99.8683 16.6313 99.9743 16.5246 100.186 16.418C100.504 16.3114 100.716 16.2048 100.822 16.3114C100.928 16.418 101.034 16.5246 101.034 16.6313C101.034 16.7379 101.034 16.8445 100.822 17.0577C100.716 17.2709 100.504 17.4841 100.292 17.6974C100.08 17.9106 99.8683 18.1238 99.7622 18.337C99.6562 18.4436 99.5502 18.5502 99.4442 18.5502C99.3382 18.5502 99.2322 18.5502 99.1261 18.4436C99.1261 18.4436 99.0201 18.4436 99.0201 18.337C98.7021 18.1238 98.384 17.804 97.9599 17.5907L96.7938 16.7379C96.6877 16.6313 96.3697 16.418 95.9456 16.0982C95.4155 15.7784 94.9915 15.4585 94.5674 15.1387C94.3554 15.0321 94.2493 14.9255 94.2493 14.8189C94.2493 14.7123 94.2493 14.6057 94.3554 14.4991C94.4614 14.2858 94.6734 14.1792 94.8854 14.2858H95.0975C95.2035 14.2858 95.3095 14.1792 95.5215 13.966C95.8396 13.6462 96.1577 13.2197 96.5817 12.6867ZM102.731 21.5353C102.519 21.3221 102.413 21.1089 102.413 21.0023C102.413 20.8956 102.413 20.789 102.625 20.6824C102.837 20.4692 103.049 20.4692 103.261 20.5758H103.367C103.473 20.6824 103.685 20.5758 103.897 20.4692C104.109 20.3626 104.533 20.0428 105.063 19.6163C105.911 18.8701 106.547 18.337 106.865 18.0172C107.183 17.6974 107.289 17.4841 107.289 17.3775V17.2709C107.183 17.0577 107.289 16.8445 107.395 16.7379C107.608 16.6313 107.714 16.5246 107.82 16.5246C107.926 16.5246 108.032 16.6313 108.244 16.8445C108.244 16.8445 108.35 16.9511 108.456 17.1643C108.562 17.2709 108.668 17.4841 108.774 17.5907C109.092 17.9106 109.41 18.337 109.728 18.6568C110.046 19.0833 110.258 19.2965 110.364 19.4031C111.212 20.4692 111.636 21.4287 111.636 22.2816C111.636 23.1345 111.212 23.9873 110.258 24.7336C109.834 25.16 109.304 25.3733 108.774 25.5865C108.244 25.7997 107.714 25.7997 107.289 25.6931C106.865 25.5865 106.547 25.4799 106.123 25.16C105.699 24.8402 105.381 24.5204 104.851 23.9873C104.745 23.8807 104.533 23.6675 104.321 23.3477C104.003 23.0278 103.791 22.708 103.685 22.4948C103.579 22.3882 103.367 22.175 103.261 21.9617C102.943 21.7485 102.837 21.5353 102.731 21.5353ZM108.032 20.3626C107.395 20.8956 106.865 21.3221 106.547 21.6419C106.229 21.9617 105.911 22.2816 105.699 22.3882C105.593 22.4948 105.487 22.6014 105.487 22.708C105.487 22.8146 105.487 22.9212 105.593 23.0278C105.911 23.3477 106.229 23.5609 106.653 23.4543C107.077 23.3477 107.501 23.1345 108.032 22.708C108.668 22.175 109.092 21.6419 109.198 21.1089C109.41 20.5758 109.304 20.1494 108.986 19.7229C108.88 19.6163 108.774 19.6163 108.774 19.6163C108.774 19.8295 108.456 20.0428 108.032 20.3626Z" fill="white"/>
<path d="M148 32.4092H0L13.8883 50.4262L0 68.3367H148L134.112 50.4262L148 32.4092Z" fill="#0E3B66"/>
<path d="M143.653 34.435H101.352C95.8395 24.9467 85.6619 18.6567 74 18.6567C62.3381 18.6567 52.1604 25.0533 46.6475 34.435H4.34668L16.6447 50.4265L4.34668 66.4179H46.6475C52.1604 75.9062 62.3381 82.1962 74 82.1962C85.6619 82.1962 95.8395 75.7996 101.352 66.4179H143.653L131.355 50.4265L143.653 34.435Z" fill="white" stroke="white" stroke-width="0.741" stroke-miterlimit="10"/>
<path d="M74.0003 30.7036L71.0318 32.1961L71.6679 28.8912L69.2295 26.6524L72.516 26.1194L74.0003 23.1343L75.4845 26.1194L78.771 26.6524L76.3326 28.8912L76.9687 32.1961L74.0003 30.7036Z" fill="#0E3B66"/>
<path d="M59.3696 26.5459H67.957H59.3696Z" fill="#0E3B66"/>
<path d="M59.3696 26.5459H67.957" stroke="#0E3B66" stroke-width="0.75" stroke-miterlimit="10"/>
<path d="M58.3096 28.7847H67.9571H58.3096Z" fill="#0E3B66"/>
<path d="M58.3096 28.7847H67.9571" stroke="#0E3B66" stroke-width="1.5" stroke-miterlimit="10"/>
<path d="M59.3696 31.0234H67.957H59.3696Z" fill="#0E3B66"/>
<path d="M59.3696 31.0234H67.957" stroke="#0E3B66" stroke-width="0.75" stroke-miterlimit="10"/>
<path d="M88.6304 31.0234H80.043H88.6304Z" fill="#0E3B66"/>
<path d="M88.6304 31.0234H80.043" stroke="#0E3B66" stroke-width="0.75" stroke-miterlimit="10"/>
<path d="M89.6905 28.7847H80.043H89.6905Z" fill="#0E3B66"/>
<path d="M89.6905 28.7847H80.043" stroke="#0E3B66" stroke-width="1.5" stroke-miterlimit="10"/>
<path d="M88.6304 26.5459H80.043H88.6304Z" fill="#0E3B66"/>
<path d="M88.6304 26.5459H80.043" stroke="#0E3B66" stroke-width="0.75" stroke-miterlimit="10"/>
<path d="M74.0003 74.7337L71.0318 76.3328L71.6679 73.0279L69.2295 70.6825L72.516 70.2561L74.0003 67.271L75.4845 70.2561L78.771 70.6825L76.3326 73.0279L76.9687 76.3328L74.0003 74.7337Z" fill="#0E3B66"/>
<path d="M59.3696 70.5757H67.957H59.3696Z" fill="#0E3B66"/>
<path d="M59.3696 70.5757H67.957" stroke="#0E3B66" stroke-width="0.75" stroke-miterlimit="10"/>
<path d="M58.3096 72.8149H67.9571H58.3096Z" fill="#0E3B66"/>
<path d="M58.3096 72.8149H67.9571" stroke="#0E3B66" stroke-width="1.5" stroke-miterlimit="10"/>
<path d="M59.3696 75.0537H67.957H59.3696Z" fill="#0E3B66"/>
<path d="M59.3696 75.0537H67.957" stroke="#0E3B66" stroke-width="0.75" stroke-miterlimit="10"/>
<path d="M88.6304 75.0532H80.043H88.6304Z" fill="#0E3B66"/>
<path d="M88.6304 75.0532H80.043" stroke="#0E3B66" stroke-width="0.75" stroke-miterlimit="10"/>
<path d="M89.6905 72.8145H80.043H89.6905Z" fill="#0E3B66"/>
<path d="M89.6905 72.8145H80.043" stroke="#0E3B66" stroke-width="1.5" stroke-miterlimit="10"/>
<path d="M88.6304 70.5757H80.043H88.6304Z" fill="#0E3B66"/>
<path d="M88.6304 70.5757H80.043" stroke="#0E3B66" stroke-width="0.75" stroke-miterlimit="10"/>
<path d="M29.0488 50.3196C29.0488 48.0808 29.6849 46.2684 30.8511 45.0957C32.0173 43.923 33.7136 43.1768 35.8339 43.1768C36.6821 43.1768 37.5302 43.2834 38.4844 43.4966C38.6964 43.4966 38.8024 43.6032 38.8024 43.6032C38.9084 43.6032 39.1205 43.4966 39.3325 43.39C39.5445 43.2834 39.7566 43.1768 39.8626 43.1768C40.0746 43.1768 40.2866 43.2834 40.4987 43.39C40.7107 43.4966 40.8167 43.8164 40.9228 44.1362C41.0288 44.6693 41.2408 45.309 41.2408 45.842C41.3468 46.4817 41.3468 46.9081 41.3468 47.2279C41.3468 47.5478 41.2408 47.761 41.1348 47.9742C41.0288 48.1874 40.7107 48.294 40.4987 48.294C40.0746 48.294 39.6505 47.9742 39.2265 47.4411C39.0144 47.2279 38.9084 47.0147 38.8024 46.9081C38.3783 46.4817 38.0603 46.1618 37.6362 45.9486C37.2122 45.7354 36.8941 45.6288 36.576 45.6288C35.8339 45.6288 35.3038 45.9486 34.8798 46.6949C34.4557 47.2279 34.2437 48.1874 34.2437 49.3601C34.2437 50.8527 34.5617 52.132 35.0918 53.0915C35.6219 54.051 36.364 54.584 37.3182 54.584C37.7422 54.584 38.0603 54.4774 38.3783 54.2642C38.6964 54.051 39.0144 53.7311 39.3325 53.3047C39.3325 53.3047 39.4385 53.1981 39.4385 53.0915C39.7566 52.5584 40.1806 52.3452 40.6047 52.3452C40.9228 52.3452 41.1348 52.4518 41.2408 52.5584C41.3468 52.665 41.3468 52.9849 41.3468 53.5179C41.3468 54.4774 41.3468 55.2237 41.2408 55.4369C41.1348 55.6501 41.0288 55.9699 40.8167 56.1832C40.4987 56.3964 39.9686 56.6096 39.1205 56.7162C38.2723 56.8228 37.3182 56.9294 36.258 56.9294C33.9256 56.9294 32.1233 56.3964 30.9571 55.2237C29.5789 54.051 29.0488 52.4518 29.0488 50.3196ZM46.8597 56.7162H44.6334C44.1033 56.7162 43.6792 56.6096 43.5732 56.503C43.3611 56.3964 43.3611 56.1832 43.3611 55.8633C43.3611 55.3303 43.5732 55.0104 43.8912 54.9038C43.9973 54.7972 44.1033 54.7972 44.2093 54.6906C44.4213 54.584 44.5273 54.2642 44.5273 53.7311C44.6334 53.1981 44.6334 52.2386 44.6334 50.8527V49.8932C44.6334 48.1874 44.6334 47.0147 44.5273 46.4817C44.5273 45.9486 44.4213 45.6288 44.3153 45.5222C44.2093 45.4156 44.1033 45.4156 43.9972 45.309C43.5732 45.0957 43.3611 44.7759 43.3611 44.3495C43.3611 44.0296 43.4672 43.7098 43.5732 43.6032C43.6792 43.4966 43.9973 43.39 44.4213 43.39H54.599C55.023 43.39 55.2351 43.4966 55.3411 43.6032C55.4471 43.7098 55.4471 43.923 55.4471 44.3495V46.8015C55.4471 47.3345 55.3411 47.6544 55.2351 47.8676C55.1291 48.0808 54.917 48.0808 54.599 48.0808C54.1749 48.0808 53.9629 47.761 53.7508 47.2279C53.6448 47.0147 53.6448 46.9081 53.5388 46.8015C53.3268 46.3751 53.0087 46.0552 52.5846 45.842C52.1606 45.6288 51.5245 45.5222 50.5703 45.5222H49.9342C49.6162 45.5222 49.4041 45.5222 49.2981 45.6288C49.1921 45.842 49.0861 46.1618 49.0861 46.5883V47.4411C49.0861 47.8676 49.0861 48.1874 49.1921 48.294C49.2981 48.4006 49.4041 48.5072 49.7222 48.5072C49.9342 48.5072 50.0402 48.5072 50.2523 48.4006C50.3583 48.294 50.4643 48.1874 50.5703 47.9742C50.5703 47.9742 50.5703 47.8676 50.6763 47.761C50.7823 47.2279 51.2064 47.0147 51.6305 47.0147C51.9485 47.0147 52.1606 47.1213 52.2666 47.3345C52.3726 47.5478 52.4786 47.9742 52.4786 48.6139V51.5989C52.4786 52.0254 52.3726 52.2386 52.2666 52.4518C52.1606 52.5584 51.9485 52.665 51.5245 52.665C51.3124 52.665 51.1004 52.5584 50.8884 52.4518C50.7823 52.3452 50.6763 52.132 50.5703 51.8121C50.4643 51.2791 50.3583 50.9593 50.1462 50.8527C49.9342 50.7461 49.8282 50.6394 49.6162 50.6394C49.4041 50.6394 49.2981 50.7461 49.1921 50.8527C49.0861 50.9593 49.0861 51.2791 49.0861 51.7055V53.1981C49.0861 53.6245 49.0861 53.9443 49.1921 54.1576C49.2981 54.3708 49.2981 54.4774 49.5101 54.584C49.6162 54.6906 49.7222 54.6906 49.8282 54.7972C50.1462 54.9038 50.3583 55.2237 50.3583 55.7567C50.3583 56.0765 50.2523 56.2898 50.1462 56.3964C49.9342 56.503 49.6162 56.6096 48.9801 56.6096H47.7079C47.2838 56.6096 47.0717 56.7162 46.8597 56.7162ZM58.4156 50.746V49.7866C58.4156 48.0808 58.4156 47.0147 58.3096 46.4817C58.3096 45.9486 58.2036 45.6288 58.0975 45.5222C57.9915 45.4156 57.8855 45.4156 57.7795 45.309C57.3554 45.0957 57.1434 44.7759 57.1434 44.3495C57.1434 44.0296 57.2494 43.7098 57.3554 43.6032C57.4614 43.4966 57.7795 43.39 58.2036 43.39H68.3812C68.8053 43.39 69.0173 43.4966 69.1233 43.6032C69.2293 43.7098 69.2293 43.923 69.2293 44.3495V46.8015C69.2293 47.3345 69.1233 47.6544 69.0173 47.8676C68.9113 48.0808 68.6992 48.0808 68.3812 48.0808C68.0631 48.0808 67.7451 47.761 67.5331 47.2279C67.427 47.0147 67.427 46.9081 67.427 46.8015C67.215 46.3751 66.897 46.0552 66.4729 45.842C66.0488 45.6288 65.4127 45.5222 64.5646 45.5222H63.6104C63.3984 45.5222 63.1864 45.6288 63.0803 45.7354C62.9743 45.842 62.9743 46.1618 62.9743 46.5883V47.5478C62.9743 48.0808 62.9743 48.4006 63.0803 48.5072C63.1864 48.6139 63.2924 48.7205 63.6104 48.7205C63.8225 48.7205 63.9285 48.7205 64.1405 48.6139C64.2465 48.5072 64.3525 48.4006 64.4586 48.1874C64.4586 48.1874 64.4586 48.0808 64.5646 47.9742C64.6706 47.4411 65.0947 47.2279 65.5187 47.2279C65.8368 47.2279 66.0488 47.3345 66.1548 47.5478C66.2609 47.761 66.3669 48.1874 66.3669 48.8271V51.8121C66.3669 52.2386 66.2609 52.4518 66.1548 52.665C66.0488 52.7716 65.8368 52.8782 65.4127 52.8782C65.2007 52.8782 64.9886 52.7716 64.7766 52.665C64.6706 52.5584 64.5646 52.3452 64.4586 52.0254C64.3525 51.4923 64.2465 51.1725 64.0345 51.0659C63.8225 50.9593 63.7164 50.8527 63.5044 50.8527C63.2924 50.8527 63.1864 50.9593 63.0803 51.0659C62.9743 51.1725 62.9743 51.4923 62.9743 51.9188V52.4518C62.9743 53.4113 63.0803 53.9443 63.2924 54.2642C63.5044 54.584 63.9285 54.6906 64.4586 54.6906C65.0947 54.6906 65.6248 54.584 66.2609 54.3708C66.7909 54.1576 67.215 53.8377 67.5331 53.5179C67.6391 53.4113 67.7451 53.1981 67.9571 52.8782C68.2752 52.3452 68.5932 52.0254 68.9113 52.0254C69.2293 52.0254 69.4414 52.132 69.5474 52.2386C69.6534 52.3452 69.7594 52.665 69.7594 52.9849C69.7594 53.5179 69.7594 53.9443 69.6534 54.584C69.6534 55.1171 69.5474 55.6501 69.5474 56.1832C69.5474 56.503 69.4414 56.7162 69.3354 56.7162C69.2293 56.8228 69.0173 56.8228 68.6993 56.8228H58.2036C57.7795 56.8228 57.4614 56.7162 57.3554 56.6096C57.1434 56.503 57.1434 56.2898 57.1434 55.9699C57.1434 55.4369 57.3554 55.1171 57.6735 55.0104C57.7795 54.9038 57.8855 54.9038 57.9915 54.7972C58.0975 54.6906 58.3096 54.3708 58.3096 53.8377C58.4156 53.1981 58.4156 52.2386 58.4156 50.746ZM74.0001 56.9294C73.364 56.9294 72.8339 56.7162 72.5159 56.3964C72.0918 55.9699 71.8798 55.5435 71.8798 54.9038C71.8798 54.2642 72.0918 53.8377 72.5159 53.4113C72.9399 52.9849 73.47 52.8782 74.2121 52.8782C74.8482 52.8782 75.3783 53.0915 75.6964 53.4113C76.1205 53.7311 76.2265 54.2642 76.2265 54.7972C76.2265 55.4369 76.0144 55.9699 75.5904 56.3964C75.2723 56.7162 74.7422 56.9294 74.0001 56.9294Z" fill="#0E3B66"/>
<path d="M79.6189 56.716C79.0889 56.716 78.6648 56.6094 78.5588 56.5028C78.3467 56.3962 78.2407 56.183 78.2407 55.7565C78.2407 55.2235 78.4528 54.9037 78.7708 54.6905C78.8768 54.6905 78.8768 54.5838 78.8768 54.5838C79.0889 54.4772 79.3009 54.1574 79.4069 53.731C79.5129 53.3045 79.5129 52.345 79.5129 51.0657C79.5129 48.9335 79.5129 47.441 79.4069 46.6947C79.3009 45.9484 79.1949 45.4154 79.0889 45.3088C79.0889 45.3088 78.9828 45.2022 78.8768 45.2022C78.4528 45.0956 78.2407 44.7757 78.2407 44.3493C78.2407 43.9229 78.3467 43.7096 78.4528 43.4964C78.5588 43.3898 78.8768 43.2832 79.4069 43.2832H85.4499C87.9943 43.2832 89.7966 43.8163 91.0688 44.989C92.341 46.1617 92.9771 47.7608 92.9771 49.9996C92.9771 51.1723 92.7651 52.1318 92.447 53.0913C92.023 54.0508 91.4929 54.7971 90.7507 55.4367C90.2207 55.9698 89.4785 56.2896 88.6304 56.5028C87.7823 56.716 86.7221 56.8226 85.4499 56.8226H80.4671C79.937 56.8226 79.725 56.716 79.6189 56.716ZM84.2837 47.7608V51.4922C84.2837 52.4516 84.3897 53.1979 84.3897 53.6244C84.3897 53.9442 84.4957 54.264 84.6018 54.264C84.7078 54.3706 84.9198 54.3706 85.2379 54.3706C86.086 54.3706 86.7221 54.0508 87.1462 53.4111C87.5702 52.7715 87.7823 51.812 87.7823 50.5327C87.7823 49.0401 87.4642 47.7608 86.9341 46.9079C86.404 46.0551 85.6619 45.6286 84.7078 45.6286C84.4957 45.6286 84.3897 45.7352 84.2837 45.9484C84.3897 46.0551 84.2837 46.6947 84.2837 47.7608ZM95.2035 50.7459V49.7864C95.2035 48.0806 95.2035 47.0145 95.0974 46.4815C95.0974 45.9484 94.9914 45.6286 94.8854 45.522C94.7794 45.4154 94.6734 45.4154 94.5674 45.3088C94.1433 45.0956 93.9313 44.7757 93.9313 44.3493C93.9313 44.0295 94.0373 43.7096 94.1433 43.603C94.2493 43.4964 94.5674 43.3898 94.9914 43.3898H105.169C105.593 43.3898 105.805 43.4964 105.911 43.603C106.017 43.7096 106.017 43.9229 106.017 44.3493V46.8013C106.017 47.3344 105.911 47.6542 105.805 47.8674C105.699 48.0806 105.487 48.0806 105.169 48.0806C104.851 48.0806 104.533 47.7608 104.321 47.2278C104.215 47.0145 104.215 46.9079 104.215 46.8013C104.003 46.3749 103.685 46.0551 103.261 45.8418C102.837 45.6286 102.201 45.522 101.352 45.522H100.398C100.186 45.522 99.9742 45.6286 99.8682 45.7352C99.7622 45.8418 99.7622 46.1617 99.7622 46.5881V47.5476C99.7622 48.0806 99.7622 48.4005 99.8682 48.5071C99.9742 48.6137 100.08 48.7203 100.398 48.7203C100.61 48.7203 100.716 48.7203 100.928 48.6137C101.034 48.5071 101.14 48.4005 101.246 48.1873C101.246 48.1873 101.246 48.0806 101.352 47.974C101.458 47.441 101.883 47.2278 102.307 47.2278C102.625 47.2278 102.837 47.3344 102.943 47.5476C103.049 47.7608 103.155 48.1873 103.155 48.8269V51.812C103.155 52.2384 103.049 52.4516 102.943 52.6649C102.837 52.7715 102.625 52.8781 102.201 52.8781C101.989 52.8781 101.777 52.7715 101.565 52.6649C101.458 52.5583 101.352 52.345 101.246 52.0252C101.14 51.4922 101.034 51.1723 100.822 51.0657C100.61 50.9591 100.504 50.8525 100.292 50.8525C100.08 50.8525 99.9742 50.9591 99.8682 51.0657C99.7622 51.1723 99.7622 51.4922 99.7622 51.9186V52.4516C99.7622 53.4111 99.8682 53.9442 100.08 54.264C100.292 54.5838 100.716 54.6905 101.246 54.6905C101.883 54.6905 102.413 54.5838 103.049 54.3706C103.579 54.1574 104.003 53.8376 104.321 53.5177C104.427 53.4111 104.533 53.1979 104.745 52.8781C105.063 52.345 105.381 52.0252 105.699 52.0252C106.017 52.0252 106.229 52.1318 106.335 52.2384C106.441 52.345 106.547 52.6649 106.547 52.9847C106.547 53.5177 106.547 53.9442 106.441 54.5838C106.441 55.1169 106.335 55.6499 106.335 56.183C106.335 56.5028 106.229 56.716 106.123 56.716C106.017 56.8226 105.805 56.8226 105.487 56.8226H94.9914C94.5674 56.8226 94.2493 56.716 94.1433 56.6094C93.9313 56.5028 93.9313 56.2896 93.9313 55.9698C93.9313 55.4367 94.1433 55.1169 94.4613 55.0103C94.5674 54.9037 94.6734 54.9037 94.7794 54.7971C94.8854 54.6905 95.0974 54.3706 95.0974 53.8376C95.0974 53.1979 95.2035 52.2384 95.2035 50.7459ZM112.06 43.3898H114.923C115.347 43.3898 115.665 43.4964 115.771 43.603C115.983 43.7096 115.983 43.9229 115.983 44.2427C115.983 44.5625 115.983 44.7757 115.877 44.989C115.771 45.0956 115.559 45.3088 115.241 45.522C115.029 45.6286 114.817 45.7352 114.711 45.9484C114.605 46.0551 114.605 46.2683 114.605 46.3749C114.605 46.5881 114.711 46.9079 114.923 47.5476C115.135 48.1873 115.347 48.7203 115.665 49.36C115.877 49.7864 116.089 50.1062 116.195 50.3195C116.301 50.5327 116.513 50.6393 116.619 50.6393C116.725 50.6393 116.831 50.5327 116.937 50.3195C117.043 50.1062 117.255 49.7864 117.467 49.2534C117.785 48.5071 117.997 47.8674 118.103 47.5476C118.209 47.2278 118.315 46.8013 118.315 46.5881C118.315 46.1617 118.103 45.7352 117.679 45.4154C117.255 45.0956 117.043 44.8824 117.043 44.5625C117.043 44.2427 117.149 43.9229 117.255 43.8163C117.467 43.7096 117.679 43.603 118.103 43.603H122.026C122.344 43.603 122.556 43.7096 122.768 43.8163C122.874 43.9229 122.98 44.1361 122.98 44.4559C122.98 44.8824 122.768 45.2022 122.45 45.4154C122.344 45.4154 122.344 45.522 122.344 45.522C122.026 45.7352 121.708 46.2683 121.178 47.2278C121.072 47.441 120.966 47.5476 120.966 47.7608C120.436 48.7203 119.693 50.2128 118.739 52.2384C117.785 54.264 117.043 55.6499 116.619 56.3962C116.407 56.716 116.195 57.0359 115.983 57.1425C115.771 57.2491 115.559 57.3557 115.241 57.3557C114.923 57.3557 114.711 57.2491 114.499 57.1425C114.287 57.0359 114.075 56.8226 113.969 56.5028C113.65 55.8632 113.12 54.7971 112.378 53.4111C111.636 52.0252 111 50.4261 110.258 48.7203C110.152 48.5071 110.046 48.2939 109.94 47.974C109.516 46.9079 109.092 46.2683 108.88 45.9484C108.774 45.8418 108.562 45.7352 108.244 45.522C107.82 45.3088 107.607 44.989 107.607 44.6691C107.607 44.2427 107.713 44.0295 107.82 43.9229C107.926 43.8163 108.244 43.7096 108.668 43.7096H109.94C110.576 43.3898 111.424 43.3898 112.06 43.3898Z" fill="#0E3B66"/>
<path d="M13.6763 62.3666H134.324M13.6763 38.6992H134.324H13.6763Z" stroke="#0E3B66" stroke-miterlimit="10"/>
<path d="M43.9973 86.567C43.8913 86.567 43.7853 86.4604 43.5732 86.2472C43.3612 86.034 43.1492 85.9273 43.0431 85.8207C42.8311 85.6075 42.7251 85.5009 42.7251 85.3943C42.7251 85.2877 42.7251 85.1811 42.8311 85.0745C43.0432 84.8612 43.1492 84.7546 43.3612 84.8612H43.5732C43.6793 84.8612 43.7853 84.7546 43.9973 84.5414C44.2093 84.3282 44.5274 83.9018 44.9515 83.3687L45.2695 82.9423C45.7996 82.196 46.2237 81.7696 46.3297 81.4497C46.4357 81.2365 46.5417 81.0233 46.5417 80.9167C46.5417 80.9167 46.5417 80.8101 46.4357 80.7035C46.3297 80.4902 46.3297 80.277 46.4357 80.0638C46.5417 79.9572 46.6477 79.8506 46.7537 79.8506C46.8598 79.8506 46.9658 79.8506 47.1778 80.0638L47.3899 80.277L48.9801 81.5563C49.8283 82.196 50.5704 82.8357 51.3125 83.3687C51.4185 83.4753 51.4185 83.4753 51.5245 83.4753C51.6305 83.5819 51.7366 83.6885 51.7366 83.7951C51.7366 83.9018 51.6305 84.0084 51.5245 84.115L50.7824 85.0745L50.3583 85.5009C50.2523 85.5009 50.1463 85.5009 50.0403 85.3943C49.9343 85.2877 49.8282 85.0745 49.9343 84.7546C49.9343 84.648 50.0403 84.5414 50.0403 84.5414C50.0403 84.3282 50.0403 84.0084 49.9343 83.7951C49.8282 83.5819 49.6162 83.3687 49.1921 83.0489L48.9801 82.8357C48.8741 82.729 48.7681 82.6224 48.6621 82.729C48.556 82.729 48.45 82.8357 48.344 83.0489L48.026 83.4753C47.9199 83.6885 47.8139 83.7951 47.8139 83.9018C47.8139 84.0084 47.8139 84.0084 47.9199 84.115C48.026 84.2216 48.132 84.2216 48.132 84.2216C48.238 84.2216 48.344 84.2216 48.344 84.115C48.344 84.115 48.45 84.115 48.45 84.0084C48.6621 83.9018 48.8741 83.9018 49.0861 84.0084C49.1921 84.115 49.2982 84.2216 49.2982 84.3282C49.2982 84.4348 49.1921 84.648 48.9801 84.9679L48.7681 85.2877L48.45 85.6075C48.344 85.7141 48.238 85.8207 48.132 86.0339C48.026 86.2472 48.026 86.3538 48.026 86.3538C47.9199 86.567 47.8139 86.6736 47.7079 86.6736C47.6019 86.6736 47.4959 86.6736 47.2838 86.567C47.1778 86.4604 47.0718 86.3538 47.0718 86.2472C47.0718 86.1406 47.0718 86.034 47.1778 85.8207C47.2838 85.6075 47.2838 85.3943 47.2838 85.2877C47.2838 85.1811 47.2838 85.0745 47.1778 84.9679C47.0718 84.8612 47.0718 84.8612 46.9658 84.9679C46.8598 84.9679 46.7538 85.0745 46.6477 85.2877L46.4357 85.6075L46.2237 85.9273C46.1176 86.1406 46.0116 86.2472 45.9056 86.3538C45.7996 86.4604 45.7996 86.567 45.9056 86.6736C45.9056 86.6736 45.9056 86.7802 46.0116 86.8868C46.1177 87.1 46.1176 87.2067 45.9056 87.4199C45.7996 87.5265 45.6936 87.6331 45.5876 87.6331C45.4815 87.6331 45.2695 87.5265 45.0575 87.3133L44.8454 87.2067C44.7394 87.2067 44.6334 87.1 44.5274 86.8868C44.3154 86.7802 44.1033 86.6736 43.9973 86.567ZM59.8999 95.309C59.6878 95.2024 59.5818 95.2024 59.4758 95.0958C59.4758 94.9892 59.3698 94.8826 59.3698 94.6693L59.1578 93.1768C59.1578 93.0702 59.1578 92.857 59.0517 92.6438C58.9457 92.0041 58.8397 91.6843 58.7337 91.5777H58.5217C58.4156 91.5777 58.4156 91.7909 58.3096 91.8975C58.0976 92.4305 57.9916 92.857 57.9916 93.0702C57.9916 93.2834 58.0976 93.39 58.2036 93.4966C58.2036 93.4966 58.3096 93.4966 58.3096 93.6032C58.5217 93.7099 58.6277 93.9231 58.5217 94.1363C58.4156 94.3495 58.3096 94.4561 58.2036 94.5627C58.0976 94.6693 57.8856 94.5627 57.4615 94.4561C57.3555 94.4561 57.2495 94.3495 57.0374 94.2429C56.8254 94.1363 56.6133 94.1363 56.5073 94.0297C56.4013 93.9231 56.1893 93.9231 55.8712 93.8165C55.5532 93.7099 55.4472 93.7099 55.2351 93.6032H55.1291C54.8111 93.4966 54.599 93.39 54.493 93.2834C54.387 93.1768 54.387 93.0702 54.493 92.857C54.599 92.6438 54.705 92.4305 54.9171 92.4305H55.1291C55.2351 92.4305 55.3411 92.2173 55.4472 92.0041C55.5532 91.7909 55.7652 91.2578 55.9772 90.6182L56.1893 90.0851C56.5073 89.2322 56.7194 88.5926 56.7194 88.3794C56.8254 88.0595 56.8254 87.9529 56.7194 87.8463C56.7194 87.8463 56.6134 87.7397 56.6134 87.6331C56.4013 87.4199 56.4013 87.2067 56.5073 86.9934C56.6133 86.7802 56.6133 86.6736 56.7194 86.6736C56.8254 86.6736 57.0374 86.6736 57.3555 86.7802C57.4615 86.8868 57.7795 86.8868 57.9916 86.9934C58.3096 87.1 58.4156 87.2067 58.6277 87.2067C58.9457 87.3133 59.3698 87.4199 59.7939 87.6331C60.2179 87.8463 60.43 87.8463 60.536 87.8463C61.3841 88.1661 62.0202 88.5926 62.3383 89.1256C62.6563 89.6587 62.7623 90.1917 62.5503 90.8314C62.4443 91.1512 62.2323 91.3644 62.0202 91.5777C61.8082 91.7909 61.4901 91.8975 61.1721 92.0041C61.0661 92.0041 60.9601 92.0041 60.9601 92.1107V92.3239L61.8082 94.4561C61.8082 94.5627 61.9142 94.6693 62.1262 94.8826C62.3383 95.0958 62.3383 95.2024 62.3383 95.4156C62.2323 95.6288 62.1262 95.8421 61.9142 95.8421C61.7022 95.9487 61.3841 95.8421 61.0661 95.7354L59.8999 95.309ZM59.2638 90.6182C59.5818 90.7248 59.7939 90.7248 59.8999 90.6182C60.1119 90.5116 60.2179 90.405 60.324 90.0851C60.43 89.7653 60.43 89.5521 60.324 89.3389C60.2179 89.1256 60.1119 88.9124 59.7939 88.8058H59.4758C59.3698 88.8058 59.3698 89.019 59.2638 89.2322L59.0517 89.6587C59.0517 89.7653 59.0517 89.7653 58.9457 89.8719C58.9457 89.9785 58.8397 89.9785 58.8397 90.0851C58.7337 90.1917 58.7337 90.2983 58.8397 90.405C58.9457 90.5116 59.0517 90.6182 59.2638 90.6182ZM70.8197 94.2429V93.7099V91.8975C70.8197 91.5777 70.7136 91.471 70.7136 91.3644C70.7136 91.3644 70.6076 91.2578 70.5016 91.2578C70.2896 91.1512 70.1835 90.938 70.1835 90.7248C70.1835 90.5116 70.1836 90.4049 70.2896 90.2983C70.3956 90.1917 70.5016 90.1917 70.7136 90.1917H71.0317C71.7738 90.1917 72.4099 90.1917 73.046 90.2983H76.2265C76.4386 90.2983 76.5446 90.2983 76.6506 90.405C76.7566 90.5116 76.7566 90.6182 76.7566 90.8314V92.2173C76.7566 92.5371 76.7566 92.6438 76.6506 92.7504C76.5446 92.857 76.4386 92.857 76.3325 92.857C76.1205 92.857 76.0145 92.7504 75.9085 92.4305C75.9085 92.3239 75.9085 92.2173 75.8025 92.2173C75.6964 92.0041 75.5904 91.7909 75.2724 91.6843C75.0603 91.5777 74.7423 91.4711 74.2122 91.4711H73.7881H73.6821C73.5761 91.4711 73.4701 91.4711 73.3641 91.5777C73.3641 91.6843 73.258 91.7909 73.258 92.0041V92.5372C73.258 92.857 73.258 92.9636 73.3641 93.0702C73.4701 93.1768 73.4701 93.0702 73.6821 93.0702C73.7881 93.0702 73.8942 93.0702 74.0002 92.9636L74.2122 92.7504V92.6438C74.3182 92.4305 74.5303 92.2173 74.7423 92.2173C74.9543 92.2173 75.0603 92.3239 75.0603 92.3239C75.0603 92.3239 75.1664 92.6438 75.1664 93.0702V94.776C75.1664 94.9892 75.1664 95.0958 75.0603 95.2024C74.9543 95.309 74.8483 95.309 74.6363 95.309C74.5303 95.309 74.4242 95.309 74.3182 95.2024C74.2122 95.0958 74.2122 94.9892 74.1062 94.8826C74.0002 94.6693 74.0002 94.4561 73.8941 94.3495C73.7881 94.2429 73.6821 94.2429 73.5761 94.2429C73.4701 94.2429 73.3641 94.2429 73.3641 94.3495C73.3641 94.4561 73.258 94.5627 73.258 94.776V95.0958C73.258 95.6288 73.2581 95.9487 73.4701 96.0553C73.6821 96.1619 73.7881 96.2685 74.1062 96.2685C74.4242 96.2685 74.7423 96.2685 75.0603 96.0553C75.3784 95.9487 75.5904 95.842 75.6964 95.6288C75.8025 95.5222 75.8025 95.4156 75.9085 95.309C76.1205 94.9892 76.2265 94.8826 76.4386 94.8826C76.5446 94.8826 76.6506 94.8826 76.7566 94.9892C76.8626 95.0958 76.8626 95.2024 76.8626 95.4156V96.2685C76.8626 96.5883 76.7566 96.9081 76.7566 97.1214C76.7566 97.228 76.6506 97.3346 76.6506 97.4412C76.5446 97.4412 76.4386 97.5478 76.3325 97.5478H70.8197C70.6076 97.5478 70.3956 97.5478 70.3956 97.4412C70.2896 97.3346 70.2896 97.228 70.2896 97.1214C70.2896 96.9081 70.3956 96.6949 70.6076 96.5883C70.7136 96.5883 70.7136 96.4817 70.8197 96.4817C70.9257 96.3751 70.9257 96.2685 71.0317 95.9487C70.8197 95.5222 70.8197 94.9892 70.8197 94.2429ZM86.6162 95.9487C86.0861 96.0553 85.556 96.1619 85.026 96.1619H84.8139C84.8139 96.1619 84.7079 96.1619 84.7079 96.2685C84.6019 96.2685 84.6019 96.3751 84.6019 96.3751C84.3899 96.3751 84.2838 96.3751 84.1778 96.1619C84.0718 95.9487 83.9658 95.6288 83.7537 95.2024C83.6477 94.776 83.6477 94.5627 83.6477 94.3495C83.6477 94.1363 83.7537 94.1363 83.9658 94.0297C84.0718 94.0297 84.2838 94.0297 84.4959 94.2429C84.6019 94.3495 84.8139 94.4561 84.8139 94.5627C85.026 94.6693 85.238 94.776 85.556 94.8826H86.4042C86.6162 94.776 86.7222 94.776 86.8282 94.6693C86.9343 94.5627 86.9343 94.4561 86.9343 94.2429C86.8282 94.0297 86.5102 93.8165 85.8741 93.8165H85.344C84.6019 93.7099 84.0718 93.6032 83.7537 93.2834C83.4357 93.0702 83.1176 92.6438 83.0116 92.1107C82.7996 91.3644 82.9056 90.7248 83.2237 90.0851C83.5417 89.4455 84.0718 89.1256 84.8139 88.9124C85.026 88.8058 85.344 88.8058 85.6621 88.8058H86.1921C86.2982 88.8058 86.4042 88.6992 86.5102 88.5926C86.6162 88.486 86.7222 88.486 86.8282 88.3794H87.0403C87.0403 88.3794 87.1463 88.5926 87.2523 88.6992C87.4644 89.019 87.5704 89.3389 87.6764 89.6587C87.7824 89.9785 87.8884 90.0851 87.8884 90.1917C87.8884 90.2983 87.8884 90.405 87.7824 90.5116C87.6764 90.6182 87.5704 90.6182 87.4644 90.7248C87.3583 90.7248 87.1463 90.7248 87.0403 90.6182C86.8282 90.5116 86.7222 90.405 86.6162 90.405C86.4042 90.2983 86.0861 90.1917 85.8741 90.1917H85.238C85.026 90.1917 84.9199 90.2983 84.9199 90.405C84.8139 90.5116 84.8139 90.6182 84.8139 90.7248C84.9199 90.938 85.238 91.0446 85.7681 91.1512C85.9801 91.1512 86.1921 91.1512 86.4042 91.2578C87.1463 91.3644 87.7824 91.5777 88.1005 91.7909C88.4185 92.0041 88.7366 92.4305 88.8426 92.9636C89.0546 93.7099 88.9486 94.3495 88.6305 94.8826C88.2065 95.2024 87.5704 95.6288 86.6162 95.9487ZM98.9142 86.6736C98.5962 86.9934 98.3841 87.1001 98.3841 87.2067C98.3841 87.3133 98.4901 87.4199 98.5962 87.7397C98.8082 88.0595 99.0202 88.3794 99.2323 88.486C99.4443 88.5926 99.5503 88.6992 99.7623 88.5926C99.7623 88.5926 99.8684 88.5926 99.8684 88.486C100.08 88.3794 100.292 88.3794 100.398 88.5926C100.504 88.8058 100.61 88.9124 100.504 89.019C100.504 89.1256 100.292 89.3389 99.9744 89.5521C99.8684 89.6587 99.7623 89.6587 99.5503 89.8719C99.3383 90.0851 99.2323 90.0851 99.1262 90.1917C99.0202 90.2983 98.8082 90.405 98.5962 90.6182C98.3841 90.8314 98.1721 90.938 98.0661 90.938L97.9601 91.0446C97.642 91.2578 97.43 91.3644 97.324 91.3644C97.2179 91.3644 97.1119 91.2578 97.0059 91.1512C96.8999 90.938 96.7939 90.7248 96.8999 90.6182C96.8999 90.5116 97.0059 90.5116 97.0059 90.405C97.0059 90.2983 97.0059 90.0851 96.8999 89.8719C96.7939 89.6587 96.4758 89.2322 96.0517 88.5926L95.7337 88.1661C95.2036 87.4199 94.8856 86.8868 94.6735 86.6736C94.4615 86.4604 94.3555 86.3538 94.2495 86.3538H94.0374C93.8254 86.3538 93.6133 86.3538 93.4013 86.1406C93.2953 86.034 93.2953 85.8207 93.2953 85.7141C93.2953 85.6075 93.5073 85.5009 93.7194 85.2877C93.8254 85.1811 94.0374 85.0745 94.2495 84.9679C94.4615 84.7546 94.6735 84.648 94.7795 84.648C94.9916 84.5414 95.2036 84.4348 95.4156 84.2216C95.6277 84.0084 95.7337 83.9018 95.8397 83.9018C96.0517 83.7951 96.2638 83.6885 96.3698 83.6885C96.4758 83.6885 96.5818 83.7951 96.6878 83.9018C96.7939 84.115 96.7939 84.3282 96.6878 84.5414V84.648C96.5818 84.7546 96.5818 84.9679 96.5818 85.0745C96.5818 85.2877 96.7939 85.5009 97.0059 85.9273C97.1119 86.1406 97.2179 86.2472 97.43 86.1406C97.536 86.1406 97.854 85.9273 98.2781 85.6075L98.8082 85.2877C99.1262 85.0745 99.2323 84.9679 99.3383 84.8612C99.3383 84.7546 99.3383 84.648 99.1262 84.3282L99.0202 84.115C98.9142 83.9018 98.8082 83.7951 98.7022 83.6885C98.5962 83.5819 98.4901 83.5819 98.3841 83.5819H98.2781C98.0661 83.5819 97.854 83.4753 97.748 83.3687C97.642 83.1555 97.642 83.0489 97.642 82.9423C97.642 82.8357 97.748 82.729 97.9601 82.6224C97.9601 82.6224 98.1721 82.5158 98.3841 82.3026C98.5962 82.0894 98.9142 81.9828 99.1262 81.7696C99.3383 81.6629 99.4443 81.5563 99.6563 81.3431C99.8684 81.2365 99.9744 81.1299 99.9744 81.1299C100.186 80.9167 100.398 80.9167 100.504 80.9167C100.61 80.9167 100.716 81.0233 100.823 81.1299C100.929 81.3431 100.929 81.4497 100.823 81.6629V81.7696C100.823 81.8762 100.823 82.0894 101.035 82.4092C101.141 82.7291 101.565 83.2621 102.201 84.115C102.625 84.7546 103.049 85.2877 103.261 85.5009C103.473 85.7141 103.685 85.8207 103.791 85.8207H104.003C104.215 85.8207 104.321 85.8207 104.533 86.0339C104.639 86.1406 104.639 86.3538 104.639 86.4604C104.639 86.567 104.533 86.6736 104.321 86.7802C104.321 86.7802 104.215 86.7802 104.215 86.8868C103.791 87.2067 103.261 87.5265 102.731 87.8463L102.625 87.9529C102.519 88.0595 102.413 88.0595 102.307 88.1661C102.201 88.2728 102.095 88.3794 101.989 88.3794C101.777 88.486 101.671 88.5926 101.565 88.486C101.459 88.486 101.353 88.3794 101.247 88.2728C101.141 88.1662 101.141 87.9529 101.141 87.7397V87.6331C101.141 87.5265 101.141 87.4199 101.035 87.2067C100.929 87.1001 100.823 86.8868 100.716 86.6736C100.716 86.6736 100.61 86.567 100.61 86.4604C100.504 86.3538 100.504 86.2472 100.504 86.2472C100.398 86.1406 100.292 86.0339 100.186 86.0339C100.08 86.0339 99.7623 86.2472 99.3383 86.567L98.9142 86.6736Z" fill="white"/>
</g>
<defs>
<clipPath id="clip0_431_920">
<rect width="148" height="100" fill="white"/>
</clipPath>
</defs>
</svg>
