<svg xmlns="http://www.w3.org/2000/svg" shape-rendering="geometricPrecision" text-rendering="geometricPrecision" image-rendering="optimizeQuality" fill-rule="evenodd" clip-rule="evenodd" viewBox="0 0 440 511.43"><path fill="#fff" fill-rule="nonzero" d="M342.383 237.038a177.282 177.282 0 00-6.707-3.046c-3.948-72.737-43.692-114.379-110.429-114.805-38.505-.255-72.972 15.445-94.454 48.041l36.702 25.178c15.265-23.159 39.221-28.096 56.864-28.096.204 0 .408 0 .61.002 21.974.14 38.555 6.529 49.287 18.987 7.81 9.071 13.034 21.606 15.621 37.425-19.483-3.311-40.553-4.329-63.077-3.038-63.45 3.655-104.24 40.661-101.501 92.08 1.391 26.083 14.385 48.523 36.587 63.181 18.772 12.391 42.95 18.45 68.077 17.079 33.183-1.819 59.215-14.48 77.377-37.63 13.793-17.58 22.516-40.363 26.368-69.069 15.814 9.544 27.535 22.103 34.007 37.2 11.006 25.665 11.648 67.84-22.764 102.223-30.15 30.121-66.392 43.151-121.164 43.554-60.758-.45-106.708-19.935-136.583-57.915-27.976-35.562-42.434-86.93-42.973-152.674.539-65.746 14.997-117.114 42.973-152.676 29.875-37.979 75.824-57.463 136.582-57.914 61.197.455 107.948 20.033 138.967 58.195 15.21 18.713 26.676 42.248 34.236 69.688L440 161.532c-9.163-33.775-23.582-62.881-43.203-87.017C357.031 25.59 298.872.519 223.936 0h-.3C148.851.518 91.344 25.683 52.709 74.795 18.331 118.499.598 179.308.002 255.535l-.002.18.002.18c.596 76.225 18.329 137.037 52.707 180.741 38.635 49.11 96.142 74.277 170.927 74.794h.3c66.486-.462 113.352-17.868 151.96-56.442 50.51-50.463 48.99-113.718 32.342-152.549-11.945-27.847-34.716-50.463-65.855-65.401zM227.587 344.967c-27.808 1.567-56.699-10.916-58.124-37.651-1.056-19.823 14.108-41.942 59.831-44.577a266.87 266.87 0 0115.422-.45c16.609 0 32.145 1.613 46.271 4.701-5.268 65.798-36.172 76.483-63.4 77.977z"/></svg>