<svg width="800" height="166" viewBox="0 0 800 166" fill="none" xmlns="http://www.w3.org/2000/svg">
<g clip-path="url(#clip0_734_546)">
<path d="M49.2198 115.5C44.9943 111.236 41.6516 106.18 39.3831 100.622C37.1146 95.0641 35.9649 89.1131 35.9998 83.1101C35.9844 77.1073 37.166 71.1616 39.4754 65.6208C41.7848 60.0799 45.1757 55.0551 49.4498 50.8401C51.2806 49.2128 52.7601 47.2288 53.7975 45.0098C54.8349 42.7907 55.4085 40.3833 55.4832 37.9349C55.5578 35.4864 55.1319 33.0485 54.2315 30.7704C53.3312 28.4923 51.9753 26.422 50.2469 24.6861C48.5186 22.9503 46.4541 21.5855 44.1799 20.6753C41.9058 19.765 39.4697 19.3286 37.021 19.3926C34.5723 19.4567 32.1624 20.0198 29.9389 21.0476C27.7154 22.0755 25.725 23.5463 24.0898 25.3701C8.72985 40.6394 0.0640587 61.3845 -0.00157755 83.0426C-0.0672138 104.701 8.47268 125.498 23.7398 140.86C25.3697 142.681 27.3535 144.152 29.5702 145.181C31.7868 146.211 34.19 146.778 36.6331 146.849C39.0762 146.919 41.5081 146.492 43.7805 145.592C46.0529 144.692 48.1182 143.338 49.8505 141.614C51.5829 139.89 52.9459 137.831 53.8566 135.563C54.7673 133.295 55.2065 130.865 55.1474 128.422C55.0884 125.978 54.5324 123.572 53.5133 121.351C52.4942 119.129 51.0333 117.139 49.2198 115.5Z" fill="#FFDA00"/>
<path d="M49.4497 50.8399C58.0634 42.3127 69.7066 37.5484 81.8272 37.5915C93.9478 37.6347 105.557 42.4816 114.11 51.0699C115.734 52.9104 117.717 54.3992 119.938 55.4448C122.159 56.4905 124.57 57.0708 127.024 57.1502C129.477 57.2296 131.921 56.8064 134.204 55.9065C136.488 55.0067 138.564 53.6492 140.304 51.9176C142.043 50.186 143.411 48.1168 144.321 45.8373C145.232 43.5578 145.667 41.1161 145.599 38.6624C145.531 36.2087 144.962 33.7947 143.927 31.569C142.892 29.3433 141.412 27.3528 139.58 25.7199C132.048 18.0911 123.084 12.0254 113.201 7.87115C103.318 3.71686 92.7125 1.55582 81.9923 1.51215C71.2722 1.46848 60.649 3.54303 50.7329 7.61667C40.8169 11.6903 31.8032 17.6828 24.2097 25.2499C22.3722 26.8689 20.8844 28.8459 19.8374 31.0598C18.7904 33.2737 18.2061 35.6779 18.1204 38.1254C18.0347 40.5729 18.4493 43.0122 19.3389 45.2939C20.2285 47.5756 21.5744 49.6517 23.2941 51.3953C25.0139 53.1389 27.0713 54.5132 29.3405 55.4342C31.6098 56.3551 34.0431 56.8033 36.4915 56.7513C38.94 56.6993 41.3521 56.1482 43.5802 55.1318C45.8083 54.1153 47.8055 52.6549 49.4497 50.8399Z" fill="#67B3FF"/>
<path d="M114 115.73C109.737 119.964 104.681 123.315 99.1215 125.592C93.5618 127.869 87.6075 129.027 81.5996 129C75.5933 129.009 69.6455 127.819 64.1044 125.501C58.5634 123.183 53.5405 119.783 49.3296 115.5C47.7023 113.669 45.7183 112.19 43.4993 111.152C41.2802 110.115 38.8728 109.541 36.4244 109.467C33.9759 109.392 31.538 109.818 29.2599 110.718C26.9818 111.619 24.9115 112.974 23.1756 114.703C21.4398 116.431 20.075 118.496 19.1648 120.77C18.2545 123.044 17.8181 125.48 17.8821 127.929C17.9462 130.378 18.5093 132.787 19.5371 135.011C20.565 137.234 22.0358 139.225 23.8596 140.86C31.4042 148.488 40.3801 154.552 50.2727 158.705C60.1653 162.858 70.7803 165.018 81.5091 165.06C92.238 165.103 102.87 163.028 112.795 158.954C122.721 154.88 131.745 148.888 139.35 141.32C141.03 139.656 142.366 137.676 143.281 135.496C144.197 133.315 144.673 130.975 144.685 128.61C144.696 126.245 144.241 123.901 143.346 121.711C142.451 119.522 141.134 117.53 139.47 115.85C137.805 114.17 135.826 112.834 133.645 111.918C131.464 111.003 129.125 110.526 126.759 110.515C124.394 110.504 122.05 110.959 119.861 111.853C117.672 112.748 115.68 114.066 114 115.73Z" fill="#EB5A68"/>
<path d="M49.4499 50.8399C46.927 53.3598 43.7125 55.0737 40.2142 55.764C36.7158 56.4543 33.0913 56.09 29.8002 54.7173C26.5092 53.3446 23.7001 51.0254 21.7291 48.0538C19.7582 45.0822 18.7142 41.5922 18.7297 38.0264C18.7451 34.4606 19.8193 30.9798 21.816 28.0254C23.8127 25.0711 26.6418 22.7763 29.9446 21.4322C33.2474 20.0881 36.875 19.7553 40.3672 20.4759C43.8595 21.1966 47.059 22.9382 49.5599 25.4799C52.8918 28.8661 54.7499 33.4321 54.7293 38.1826C54.7087 42.933 52.811 47.4828 49.4499 50.8399Z" fill="#47A1FF"/>
<path d="M49.1001 140.86C46.5763 143.379 43.3611 145.092 39.8625 145.78C36.3638 146.469 32.7394 146.104 29.449 144.73C26.1585 143.356 23.3503 141.035 21.3805 138.063C19.4107 135.091 18.3681 131.6 18.385 128.034C18.4018 124.469 19.4774 120.988 21.4752 118.035C23.4731 115.081 26.3031 112.787 29.6065 111.445C32.9098 110.102 36.5375 109.77 40.0294 110.492C43.5214 111.214 46.7202 112.957 49.2201 115.5C52.5507 118.888 54.407 123.454 54.3846 128.205C54.3621 132.955 52.4626 137.504 49.1001 140.86Z" fill="#D5465F"/>
<path fill-rule="evenodd" clip-rule="evenodd" d="M219.68 100.75C224.87 96.83 225.56 99.02 229.94 103.4C232.13 105.59 238.12 109.4 234.2 112.62C226.02 119.3 218.64 122.3 208.2 122.3C184.57 122.19 167.86 104.55 169.2 81.15C169.77 70.67 173.92 60.75 182.11 53.95C189.6 47.61 198.93 44.85 208.73 45.08C213.533 45.0658 218.292 46.0039 222.73 47.84C225.736 48.9255 228.569 50.4413 231.14 52.34C236.33 56.34 233.91 58.68 229.87 62.71C228.95 63.63 228.03 64.56 227.22 65.48C225.15 67.55 223.76 69.05 221 67.09C215.7 63.4 209 61.44 202.67 63.09C182.27 68.27 183.19 104.58 208.21 104.7C212.358 104.645 216.378 103.261 219.68 100.75ZM786.75 122.75C785.932 122.754 785.121 122.596 784.364 122.285C783.607 121.974 782.919 121.516 782.34 120.938C781.76 120.359 781.301 119.672 780.989 118.916C780.677 118.159 780.518 117.348 780.52 116.53L780.87 36.08C780.866 35.2616 781.024 34.4505 781.335 33.6935C781.646 32.9365 782.104 32.2486 782.683 31.6695C783.261 31.0903 783.948 30.6313 784.704 30.3191C785.461 30.0068 786.272 29.8474 787.09 29.85H793.78C794.599 29.8474 795.411 30.0071 796.168 30.32C796.925 30.6329 797.613 31.0927 798.191 31.673C798.77 32.2532 799.227 32.9423 799.538 33.7005C799.848 34.4586 800.005 35.2708 800 36.09L799.65 116.54C799.654 117.358 799.496 118.169 799.185 118.925C798.874 119.681 798.416 120.369 797.837 120.947C797.259 121.525 796.572 121.983 795.815 122.295C795.059 122.606 794.248 122.764 793.43 122.76L786.75 122.75ZM751.75 113.42C744.49 120.22 737.57 123.79 727.31 123.79C706.57 123.67 696.65 106.5 696.65 87.25L696.77 54.52C696.768 53.7021 696.927 52.8917 697.239 52.1358C697.552 51.3799 698.011 50.6933 698.59 50.1159C699.17 49.5384 699.858 49.0815 700.614 48.7716C701.371 48.4616 702.182 48.3047 703 48.31H709.69C710.508 48.3061 711.319 48.4642 712.075 48.7754C712.832 49.0866 713.519 49.5446 714.097 50.123C714.676 50.7013 715.134 51.3886 715.445 52.145C715.756 52.9015 715.914 53.7121 715.91 54.53L715.8 87.26C715.8 97.98 721.56 106.39 732.86 106.39C744.16 106.39 751.07 96.94 751.18 86.39V74.7C751.089 74.246 751.052 73.7828 751.07 73.32L751.18 54.76C751.176 53.9421 751.334 53.1315 751.646 52.375C751.957 51.6186 752.415 50.9313 752.993 50.353C753.571 49.7746 754.259 49.3166 755.015 49.0054C755.772 48.6942 756.582 48.5361 757.4 48.54H764C764.818 48.5361 765.629 48.6942 766.385 49.0054C767.142 49.3166 767.829 49.7746 768.407 50.353C768.986 50.9313 769.444 51.6186 769.755 52.375C770.066 53.1315 770.224 53.9421 770.22 54.76L770 116.54C769.984 118.175 769.32 119.736 768.154 120.882C766.988 122.027 765.415 122.663 763.78 122.65H758.13C756.526 122.6 755 121.94 753.865 120.805C752.73 119.67 752.07 118.145 752.02 116.54L751.75 113.42ZM672.18 48.54H685.09C685.909 48.5517 686.717 48.7253 687.468 49.0509C688.219 49.3765 688.898 49.8476 689.466 50.4371C690.034 51.0265 690.48 51.7226 690.777 52.4851C691.075 53.2477 691.219 54.0617 691.2 54.88V59.14C691.187 60.7822 690.53 62.3537 689.371 63.5168C688.212 64.6799 686.642 65.3417 685 65.36H672.06L671.83 116.19C671.834 117.008 671.676 117.82 671.365 118.577C671.054 119.334 670.596 120.021 670.018 120.601C669.44 121.18 668.752 121.639 667.996 121.951C667.239 122.263 666.429 122.423 665.61 122.42H658.93C658.111 122.423 657.3 122.263 656.543 121.951C655.786 121.639 655.098 121.18 654.519 120.601C653.94 120.022 653.481 119.334 653.169 118.577C652.857 117.82 652.698 117.009 652.7 116.19L652.93 45.89C652.93 30.56 661.69 18.45 677.37 17.07C677.83 17.07 678.17 16.96 678.63 16.96C679.553 16.9 680.478 16.9 681.4 16.96H687.4C688.218 16.9717 689.025 17.145 689.775 17.47C690.526 17.795 691.205 18.2652 691.772 18.8535C692.34 19.4419 692.786 20.1368 693.085 20.8982C693.383 21.6596 693.527 22.4725 693.51 23.29V27.21C693.5 28.8574 692.841 30.4344 691.677 31.6002C690.513 32.766 688.937 33.4269 687.29 33.44H682.45C675.07 33.44 671.96 39.08 671.84 46L672.18 48.54ZM625.85 48.31H640C641.635 48.3259 643.196 48.9898 644.342 50.156C645.488 51.3222 646.123 52.8953 646.11 54.53V58.79C646.094 60.4247 645.43 61.9863 644.264 63.1318C643.098 64.2774 641.525 64.9134 639.89 64.9H625.73L625.62 96C625.62 102 628.5 105.45 634.49 105.45H637.37C639.006 105.469 640.567 106.135 641.713 107.302C642.858 108.47 643.494 110.044 643.48 111.68V116C643.462 117.634 642.797 119.194 641.631 120.339C640.466 121.484 638.894 122.121 637.26 122.11H631.84C630.839 122.13 629.837 122.09 628.84 121.99C613.51 120.99 606.71 111.05 606.71 96.06C606.83 75.89 606.83 55.84 606.94 35.67C606.948 34.8598 607.115 34.059 607.433 33.3134C607.75 32.5678 608.211 31.892 608.79 31.3247C609.368 30.7573 610.053 30.3094 610.804 30.0067C611.556 29.7039 612.36 29.5521 613.17 29.56H619.74C621.375 29.5759 622.936 30.2398 624.082 31.406C625.228 32.5722 625.863 34.1453 625.85 35.78V48.31ZM420.85 47.5H435C436.635 47.5159 438.196 48.1798 439.342 49.346C440.488 50.5122 441.123 52.0853 441.11 53.72V58C441.092 59.6339 440.427 61.1939 439.261 62.3389C438.096 63.4839 436.524 64.1207 434.89 64.11H420.69V95.22C420.69 101.22 423.57 104.67 429.56 104.67H432.45C433.259 104.678 434.059 104.845 434.803 105.162C435.547 105.479 436.222 105.939 436.788 106.517C437.355 107.094 437.802 107.778 438.104 108.528C438.407 109.278 438.558 110.081 438.55 110.89V115.15C438.534 116.785 437.87 118.346 436.704 119.492C435.538 120.637 433.965 121.273 432.33 121.26H428.07C411.35 121.15 401.67 114 401.67 95.26C401.79 75.09 401.79 55.03 401.9 34.86C401.919 33.2245 402.585 31.6629 403.753 30.5176C404.92 29.3723 406.495 28.7367 408.13 28.75H414.7C416.335 28.7685 417.895 29.4349 419.039 30.603C420.183 31.7711 420.816 33.3453 420.8 34.98L420.85 47.5ZM337.64 56.26C344.44 49.92 351.82 45.89 361.38 45.89C382.13 46 392.85 62.89 392.73 82.42L392.62 115.15C392.623 115.969 392.464 116.78 392.151 117.537C391.839 118.294 391.38 118.982 390.801 119.561C390.222 120.14 389.535 120.599 388.777 120.911C388.02 121.223 387.209 121.383 386.39 121.38H379.71C378.891 121.383 378.08 121.223 377.323 120.911C376.566 120.599 375.878 120.14 375.299 119.561C374.72 118.982 374.261 118.294 373.949 117.537C373.637 116.78 373.478 115.969 373.48 115.15L373.6 82.65C373.6 71.93 367.84 63.52 356.54 63.52C345.24 63.52 338.33 72.86 338.22 83.46L338.1 115.15C338.084 116.785 337.42 118.346 336.254 119.492C335.088 120.637 333.515 121.273 331.88 121.26H325.31C323.676 121.244 322.114 120.58 320.968 119.414C319.823 118.248 319.187 116.675 319.2 115.04C319.31 95.33 319.31 75.51 319.43 55.8V53.15C319.435 51.5171 320.088 49.9529 321.244 48.8001C322.401 47.6473 323.967 47 325.6 47H331.25C332.856 47.0478 334.382 47.7068 335.518 48.8425C336.653 49.9781 337.312 51.5047 337.36 53.11L337.64 56.26ZM543.03 57.06C549.83 50.73 557.2 46.69 566.77 46.69C587.52 46.81 598.23 63.75 598.12 83.23L598 116C598.004 116.818 597.846 117.63 597.535 118.387C597.224 119.144 596.766 119.831 596.188 120.411C595.61 120.99 594.922 121.449 594.166 121.761C593.409 122.073 592.599 122.233 591.78 122.23H585.1C584.281 122.233 583.47 122.073 582.713 121.761C581.956 121.449 581.268 120.99 580.689 120.411C580.11 119.832 579.651 119.144 579.339 118.387C579.027 117.63 578.868 116.819 578.87 116L578.99 83.5C578.99 72.78 573.22 64.37 561.93 64.37C550.64 64.37 543.72 73.7 543.6 84.31L543.44 116C543.422 117.636 542.756 119.197 541.588 120.342C540.42 121.488 538.846 122.123 537.21 122.11H530.64C529.007 122.092 527.448 121.426 526.305 120.261C525.161 119.095 524.527 117.523 524.54 115.89L524.77 53.99C524.773 53.1764 524.936 52.3713 525.251 51.6211C525.566 50.8709 526.027 50.1904 526.606 49.6188C527.185 49.0472 527.871 48.5957 528.625 48.2905C529.379 47.9852 530.187 47.8321 531 47.84H536.65C538.261 47.8932 539.791 48.5611 540.926 49.7066C542.06 50.8521 542.713 52.3884 542.75 54L543.03 57.06ZM274.89 45.31C252.41 45.19 236.51 61.44 236.39 83.8C236.28 106.39 251.95 122.42 274.66 122.53C297.37 122.64 313.27 106.74 313.38 84C313.5 61.79 297.25 45.42 274.89 45.31ZM461.49 91.53C463.1 101.9 473.02 106.16 482.7 106.28C487.553 106.238 492.342 105.178 496.76 103.17C497.471 102.881 498.162 102.547 498.83 102.17C501.14 100.9 503.21 100.1 505.29 102.17C506.44 103.32 507.48 104.48 508.63 105.51C509.716 106.546 510.719 107.667 511.63 108.86C514.74 112.77 512.55 113.7 508.98 116.12C501.37 121.19 491.46 123.72 482.35 123.72C457.92 123.61 441.78 108.72 441.78 84.08C441.9 60.79 458.03 45.35 481.31 45.46C505.06 45.58 518.54 59.53 518.89 83.27C519 89.72 519.23 91.8 512.55 91.8L461.49 91.53ZM274.89 62.71C286.53 62.71 294.25 72.86 294.25 84.04C294.25 95.68 286.99 105.04 274.77 105.04C262.55 105.04 255.41 95.59 255.41 83.95C255.41 72.31 262.79 62.71 274.89 62.71ZM462 75.51L500.27 75.62C498.88 66.05 490.93 62.25 481.83 62.25C472.73 62.25 464.83 66.52 462 75.51Z" fill="#29303A"/>
</g>
<defs>
<clipPath id="clip0_734_546">
<rect width="800" height="165.06" fill="white"/>
</clipPath>
</defs>
</svg>
