<svg width="512" height="208" viewBox="0 0 512 208" fill="none" xmlns="http://www.w3.org/2000/svg">
<g clip-path="url(#clip0_734_531)">
<path d="M117.4 207V154.6L118.5 153.5H129.4L130.5 154.6V207L129.4 208.1H118.5L117.4 207Z" fill="#05BDBA"/>
<path d="M117.4 53.4999V0.999908L118.5 -0.100098H129.4L130.5 0.999908V53.3999L129.4 54.4999H118.5L117.4 53.4999Z" fill="#05BDBA"/>
<path d="M69.9998 169.2H68.4998L60.7998 161.5V160L78.7998 142H86.9998L87.9998 143V151.2L69.9998 169.2Z" fill="#05BDBA"/>
<path d="M69.9002 38.7998H68.4002L60.7002 46.4998V47.9998L78.7002 65.9998H86.9002L88.0002 64.9998V56.7998L69.9002 38.7998Z" fill="#05BDBA"/>
<path d="M1.1 97.3999H75.4L76.5 98.4999V109.4L75.4 110.5H1.1L0 109.5V98.5999L1.1 97.3999Z" fill="#05BDBA"/>
<path d="M441 97.3999H510.9L512 98.4999V109.4L510.9 110.5H436.6L435.5 109.4L439.9 98.4999L441 97.3999Z" fill="#05BDBA"/>
<path d="M212.1 108.7L211 109.8H177.1L176 110.9C176 113.1 178.2 119.6 186.9 119.6C190.2 119.6 193.5 118.5 194.5 116.3L195.6 115.2H208.7L209.8 116.3C208.7 122.9 203.2 132.7 186.8 132.7C168.2 132.7 159.5 119.6 159.5 104.3C159.5 88.9999 168.2 75.8999 185.7 75.8999C203.2 75.8999 211.9 88.9999 211.9 104.3V108.7H212.1ZM195.7 97.6999C195.7 96.5999 194.6 88.9999 185.9 88.9999C177.2 88.9999 176.1 96.5999 176.1 97.6999L177.2 98.7999H194.7L195.7 97.6999Z" fill="#014847"/>
<path d="M242.7 115.2C242.7 117.4 243.8 118.5 246 118.5H255.8L256.9 119.6V130.5L255.8 131.6H246C236.2 131.6 227.4 127.2 227.4 115.2V91.1999L226.3 90.0999H218.7L217.6 88.9999V78.0999L218.7 76.9999H226.3L227.4 75.8999V65.9999L228.5 64.8999H241.6L242.7 65.9999V75.7999L243.8 76.8999H255.8L256.9 77.9999V88.9999L255.8 90.0999H243.8L242.7 91.1999V115.2Z" fill="#014847"/>
<path d="M283.1 131.6H270L268.9 130.5V56.1998L270 55.0999H283.1L284.2 56.1998V130.5L283.1 131.6Z" fill="#014847"/>
<path d="M312.6 68.1998H299.5L298.4 67.0999V56.1998L299.5 55.0999H312.6L313.7 56.1998V67.0999L312.6 68.1998ZM312.6 131.6H299.5L298.4 130.5V77.9998L299.5 76.8998H312.6L313.7 77.9998V130.5L312.6 131.6Z" fill="#014847"/>
<path d="M364 56.1998V67.0999L362.9 68.1998H353C350.8 68.1998 349.7 69.2998 349.7 71.4998V75.8998L350.8 76.9998H361.7L362.8 78.0999V88.9998L361.7 90.0999H350.8L349.7 91.1998V130.5L348.6 131.6H335.5L334.4 130.5V91.1998L333.3 90.0999H325.7L324.6 88.9998V78.0999L325.7 76.9998H333.3L334.4 75.8998V71.4998C334.4 59.4998 343.1 55.0999 353 55.0999H362.8L364 56.1998Z" fill="#014847"/>
<path d="M404.4 132.7C400 143.6 395.7 150.2 380.4 150.2H374.9L373.8 149.1V138.2L374.9 137.1H380.4C385.9 137.1 387 136 388 132.7V131.6L370.5 89V78.1L371.6 77H381.4L382.5 78.1L395.6 115.3H396.7L409.8 78.1L410.9 77H420.7L421.8 78.1V89L404.4 132.7Z" fill="#014847"/>
<path d="M135.5 131.6L134.4 130.5V98.7999C134.4 93.2999 132.3 89.0998 125.7 88.9998C122.3 88.8998 118.4 88.9998 114.3 89.1998L113.7 89.7999V130.5L112.6 131.6H99.3998L98.2998 130.5V77.4998L99.3998 76.3998L128.9 76.0999C143.7 76.0999 149.7 86.2998 149.7 97.6998V130.5L148.6 131.6H135.5Z" fill="#014847"/>
</g>
<defs>
<clipPath id="clip0_734_531">
<rect width="512" height="208" fill="white"/>
</clipPath>
</defs>
</svg>
