<svg width="174" height="104" viewBox="0 0 174 104" fill="none" xmlns="http://www.w3.org/2000/svg">
<path d="M49.4527 37.9427C49.4527 40.057 49.6816 41.7713 50.0823 43.0284C50.5402 44.2856 51.1125 45.657 51.9139 47.1427C52.2 47.5998 52.3145 48.057 52.3145 48.457C52.3145 49.0284 51.9711 49.5998 51.227 50.1713L47.6211 52.5713C47.106 52.9141 46.5908 53.0856 46.1329 53.0856C45.5606 53.0856 44.9882 52.7998 44.4158 52.2856C43.6145 51.4284 42.9277 50.5141 42.3553 49.5998C41.7829 48.6284 41.2106 47.5427 40.581 46.2284C36.1165 51.4856 30.5073 54.1141 23.7533 54.1141C18.9454 54.1141 15.1106 52.7427 12.306 49.9998C9.50136 47.257 8.07043 43.5998 8.07043 39.0284C8.07043 34.1713 9.78754 30.2284 13.279 27.257C16.7704 24.2856 21.4066 22.7998 27.302 22.7998C29.2481 22.7998 31.2514 22.9713 33.3691 23.257C35.4869 23.5427 37.6619 23.9998 39.9514 24.5141V20.3427C39.9514 15.9998 39.0356 12.9713 37.2612 11.1998C35.4296 9.42842 32.3389 8.57127 27.9316 8.57127C25.9283 8.57127 23.8678 8.79985 21.75 9.31413C19.6323 9.82842 17.5718 10.457 15.5685 11.257C14.6527 11.657 13.9658 11.8856 13.5652 11.9998C13.1645 12.1141 12.8783 12.1713 12.6494 12.1713C11.8481 12.1713 11.4474 11.5998 11.4474 10.3998V7.59985C11.4474 6.68556 11.5619 5.99985 11.8481 5.59985C12.1343 5.19985 12.6494 4.79985 13.4507 4.39985C15.454 3.37127 17.8579 2.51413 20.6625 1.82842C23.4671 1.08556 26.4435 0.742704 29.5915 0.742704C36.4027 0.742704 41.3823 2.28556 44.5875 5.37127C47.7356 8.45699 49.3382 13.1427 49.3382 19.4284V37.9427H49.4527ZM26.2145 46.6284C28.1033 46.6284 30.0494 46.2856 32.1099 45.5998C34.1704 44.9141 36.002 43.657 37.5474 41.9427C38.4632 40.857 39.15 39.657 39.4935 38.2856C39.8369 36.9141 40.0658 35.257 40.0658 33.3141V30.9141C38.406 30.5141 36.6316 30.1713 34.8 29.9427C32.9685 29.7141 31.1941 29.5998 29.4198 29.5998C25.5849 29.5998 22.7803 30.3427 20.8915 31.8856C19.0027 33.4284 18.0869 35.5998 18.0869 38.457C18.0869 41.1427 18.7737 43.1427 20.2046 44.5141C21.5783 45.9427 23.5816 46.6284 26.2145 46.6284ZM72.1757 52.7998C71.1454 52.7998 70.4586 52.6284 70.0007 52.2284C69.5428 51.8856 69.1421 51.0856 68.7987 49.9998L55.3481 5.82842C55.0046 4.68556 54.8329 3.9427 54.8329 3.5427C54.8329 2.62842 55.2908 2.11413 56.2066 2.11413H61.8158C62.9033 2.11413 63.6474 2.28556 64.0481 2.68556C64.506 3.02842 64.8494 3.82842 65.1928 4.91413L74.8086 42.7427L83.7375 4.91413C84.0237 3.77128 84.3671 3.02842 84.825 2.68556C85.2829 2.3427 86.0843 2.11413 87.1145 2.11413H91.6935C92.781 2.11413 93.525 2.28556 93.9829 2.68556C94.4408 3.02842 94.8415 3.82842 95.0704 4.91413L104.114 43.1998L114.016 4.91413C114.359 3.77128 114.76 3.02842 115.161 2.68556C115.618 2.3427 116.363 2.11413 117.393 2.11413H122.716C123.632 2.11413 124.147 2.57127 124.147 3.5427C124.147 3.82842 124.09 4.11413 124.032 4.45699C123.975 4.79985 123.861 5.25699 123.632 5.88556L109.838 50.057C109.494 51.1998 109.093 51.9427 108.636 52.2856C108.178 52.6284 107.434 52.857 106.461 52.857H101.538C100.451 52.857 99.7066 52.6856 99.2487 52.2856C98.7908 51.8856 98.3902 51.1427 98.1612 49.9998L89.2895 13.1427L80.475 49.9427C80.1889 51.0856 79.8454 51.8284 79.3875 52.2284C78.9296 52.6284 78.1283 52.7998 77.0981 52.7998H72.1757ZM145.725 54.3427C142.749 54.3427 139.772 53.9998 136.911 53.3141C134.049 52.6284 131.816 51.8856 130.328 51.0284C129.413 50.5141 128.783 49.9427 128.554 49.4284C128.325 48.9141 128.211 48.3427 128.211 47.8284V44.9141C128.211 43.7141 128.668 43.1427 129.527 43.1427C129.87 43.1427 130.214 43.1998 130.557 43.3141C130.901 43.4284 131.416 43.657 131.988 43.8856C133.934 44.7427 136.052 45.4284 138.284 45.8856C140.574 46.3427 142.806 46.5713 145.095 46.5713C148.701 46.5713 151.506 45.9427 153.452 44.6856C155.398 43.4284 156.428 41.5998 156.428 39.257C156.428 37.657 155.913 36.3427 154.883 35.257C153.853 34.1713 151.907 33.1998 149.102 32.2856L140.803 29.7141C136.624 28.3998 133.534 26.457 131.645 23.8856C129.756 21.3713 128.783 18.5713 128.783 15.5998C128.783 13.1998 129.298 11.0856 130.328 9.25699C131.359 7.42842 132.732 5.82842 134.449 4.57127C136.166 3.25699 138.113 2.28556 140.402 1.59985C142.691 0.914132 145.095 0.628418 147.614 0.628418C148.873 0.628418 150.19 0.685561 151.449 0.856989C152.765 1.02842 153.967 1.25699 155.169 1.48556C156.314 1.77127 157.401 2.05699 158.432 2.39985C159.462 2.7427 160.263 3.08556 160.836 3.42842C161.637 3.88556 162.209 4.3427 162.553 4.85699C162.896 5.31413 163.068 5.9427 163.068 6.7427V9.42842C163.068 10.6284 162.61 11.257 161.751 11.257C161.293 11.257 160.549 11.0284 159.576 10.5713C156.314 9.08556 152.651 8.3427 148.587 8.3427C145.324 8.3427 142.749 8.85699 140.974 9.9427C139.2 11.0284 138.284 12.6856 138.284 15.0284C138.284 16.6284 138.857 17.9998 140.001 19.0856C141.146 20.1713 143.264 21.257 146.297 22.2284L154.425 24.7998C158.546 26.1141 161.522 27.9427 163.297 30.2856C165.071 32.6284 165.93 35.3141 165.93 38.2856C165.93 40.7427 165.415 42.9713 164.441 44.9141C163.411 46.857 162.038 48.5713 160.263 49.9427C158.489 51.3713 156.371 52.3998 153.91 53.1427C151.334 53.9427 148.644 54.3427 145.725 54.3427Z" fill="#252F3E"/>
<path fill-rule="evenodd" clip-rule="evenodd" d="M156.543 82.1141C137.712 95.9999 110.353 103.371 86.8283 103.371C53.8599 103.371 24.154 91.1999 1.71712 70.9713C-0.0572256 69.3713 1.54541 67.1999 3.66317 68.457C27.9316 82.5141 57.8665 91.0284 88.8316 91.0284C109.723 91.0284 132.675 86.6856 153.795 77.7713C156.943 76.3427 159.634 79.8284 156.543 82.1141Z" fill="#FF9900"/>
<path fill-rule="evenodd" clip-rule="evenodd" d="M164.384 73.1999C161.98 70.1142 148.472 71.7142 142.348 72.457C140.516 72.6856 140.23 71.0856 141.89 69.8856C152.651 62.3427 170.337 64.5142 172.397 67.0284C174.458 69.5999 171.825 87.257 161.751 95.7141C160.206 97.0284 158.718 96.3427 159.405 94.6284C161.694 88.9713 166.788 76.2284 164.384 73.1999Z" fill="#FF9900"/>
</svg>
