<svg width="152" height="132" viewBox="0 0 152 132" fill="none" xmlns="http://www.w3.org/2000/svg">
<g clip-path="url(#clip0)">
<path d="M77.6752 91.3999H72.3047L72.3293 131.24H94.0823V126.312H77.6998L77.6752 91.3999Z" fill="#8C929D"/>
<path d="M114.776 124.253C113.027 126.042 110.637 127.072 108.124 127.048C104.035 127.048 102.384 125.037 102.384 122.414C102.384 118.467 105.144 116.579 111.007 116.579C112.288 116.579 113.544 116.677 114.801 116.873V124.253H114.776ZM109.208 100.103C105.045 100.079 100.98 101.55 97.7777 104.198L99.6746 107.483C101.867 106.208 104.552 104.933 108.42 104.933C112.83 104.933 114.776 107.189 114.776 110.964V112.901C113.544 112.705 112.312 112.607 111.056 112.607C101.645 112.607 96.8661 115.892 96.8661 122.757C96.8661 128.911 100.66 132 106.4 132C110.268 132 113.988 130.235 115.269 127.366L116.254 131.265H120.048V110.866C120.023 104.418 117.215 100.103 109.208 100.103Z" fill="#8C929D"/>
<path d="M137.367 127.244C135.347 127.244 133.573 126.999 132.242 126.386V107.973C134.065 106.453 136.332 105.35 139.214 105.35C144.412 105.35 146.408 109.003 146.408 114.912C146.408 123.297 143.181 127.244 137.367 127.244ZM139.633 100.128C136.825 100.103 134.115 101.305 132.242 103.389V98.2401L132.218 91.4243H126.971L126.995 130.284C129.631 131.387 133.228 131.976 137.145 131.976C147.171 131.976 152 125.601 152 114.593C151.975 105.889 147.516 100.128 139.633 100.128Z" fill="#8C929D"/>
<path d="M19.1909 95.739C23.9455 95.739 27.025 97.3081 29.0204 98.9017L31.3361 94.9054C28.2075 92.1595 23.9702 90.6885 19.4373 90.6885C8.00648 90.6885 0 97.6268 0 111.626C0 126.287 8.647 132 18.5258 132C22.6152 132 26.6554 131.215 30.4493 129.695L30.3261 114.029V109.101H15.6681V114.029H25.0295L25.1527 125.92C23.9209 126.532 21.8023 127.023 18.9199 127.023C10.9874 127.023 5.66613 122.046 5.66613 111.577C5.64149 100.912 11.1352 95.739 19.1909 95.739Z" fill="#8C929D"/>
<path d="M57.0062 91.3999H51.7589L51.7835 98.0931V121.213C51.7835 127.661 54.5919 131.976 62.5984 131.976C63.6824 131.976 64.7663 131.878 65.8256 131.681V126.999C65.0127 127.121 64.1997 127.17 63.3867 127.17C58.977 127.17 57.0308 124.915 57.0308 121.139V105.203H65.8256V100.839H57.0308L57.0062 91.3999Z" fill="#8C929D"/>
<path d="M38.4312 131.24H43.6785V100.839H38.4312V131.24Z" fill="#8C929D"/>
<path d="M38.4312 96.6465H43.6785V91.4243H38.4312V96.6465Z" fill="#8C929D"/>
<path d="M117.437 43.5915L112.781 29.3471L103.567 1.07888C103.296 0.245296 102.384 -0.196011 101.547 0.0736764C101.079 0.220779 100.709 0.613052 100.537 1.07888L91.3232 29.3226H60.6769L51.4632 1.07888C51.1923 0.245296 50.2807 -0.196011 49.4431 0.0736764C48.9751 0.220779 48.6055 0.613052 48.4331 1.07888L39.2195 29.3226L34.5634 43.5915C34.1446 44.8909 34.588 46.3129 35.6966 47.122L76 76.2483L116.279 47.122C117.387 46.3129 117.855 44.8909 117.437 43.5915Z" fill="#FC6D26"/>
<path d="M76 76.2239L91.3232 29.3228H60.7015L76 76.2239Z" fill="#E24329"/>
<path d="M76 76.2239L60.6768 29.3228H39.2441L76 76.2239Z" fill="#FC6D26"/>
<path d="M39.2441 29.3467L34.588 43.5911C34.1692 44.8905 34.6373 46.3125 35.7459 47.1216L76 76.2479L39.2441 29.3467Z" fill="#FCA326"/>
<path d="M39.2441 29.3475H60.7014L51.4632 1.10378C51.1922 0.270198 50.2807 -0.171109 49.4431 0.0985788C48.975 0.245681 48.6055 0.637955 48.4331 1.10378L39.2441 29.3475Z" fill="#E24329"/>
<path d="M76 76.2239L91.3232 29.3228H112.781L76 76.2239Z" fill="#FC6D26"/>
<path d="M112.781 29.3467L117.437 43.5911C117.855 44.8905 117.412 46.3125 116.303 47.1216L76.0247 76.2233L112.781 29.3467Z" fill="#FCA326"/>
<path d="M112.781 29.3475H91.3232L100.537 1.10378C100.808 0.270198 101.719 -0.171109 102.557 0.0985788C103.025 0.245681 103.394 0.637955 103.567 1.10378L112.781 29.3475Z" fill="#E24329"/>
</g>
<defs>
<clipPath id="clip0">
<rect width="152" height="132" fill="white"/>
</clipPath>
</defs>
</svg>
