<svg width="207" height="78" viewBox="0 0 207 78" fill="none" xmlns="http://www.w3.org/2000/svg">
<path d="M16.1999 24.0999C15.7999 24.0999 15.6999 23.8999 15.8999 23.5999L17.9999 20.8999C18.1999 20.5999 18.6999 20.3999 19.0999 20.3999H54.7999C55.1999 20.3999 55.2999 20.6999 55.0999 20.9999L53.3999 23.5999C53.1999 23.8999 52.6999 24.1999 52.3999 24.1999L16.1999 24.0999Z" fill="#00ACD7"/>
<path d="M1.09995 33.3001C0.699952 33.3001 0.599951 33.1001 0.799951 32.8001L2.89995 30.1001C3.09995 29.8001 3.59995 29.6001 3.99995 29.6001H49.5999C50 29.6001 50.1999 29.9001 50.0999 30.2001L49.3 32.6001C49.2 33.0001 48.8 33.2001 48.4 33.2001L1.09995 33.3001Z" fill="#00ACD7"/>
<path d="M25.2999 42.5003C24.8999 42.5003 24.7999 42.2003 24.9999 41.9003L26.3999 39.4003C26.5999 39.1003 26.9999 38.8003 27.3999 38.8003H47.3999C47.7999 38.8003 47.9999 39.1003 47.9999 39.5003L47.7999 41.9003C47.7999 42.3003 47.3999 42.6003 47.0999 42.6003L25.2999 42.5003Z" fill="#00ACD7"/>
<path d="M129.1 22.3001C122.8 23.9001 118.5 25.1 112.3 26.7C110.8 27.1 110.7 27.2 109.4 25.7C107.9 24 106.8 22.9001 104.7 21.9001C98.3999 18.8001 92.2999 19.7001 86.5999 23.4001C79.7999 27.8001 76.2999 34.3 76.3999 42.4001C76.4999 50.4001 81.9999 57.0001 89.8999 58.1001C96.6999 59.0001 102.4 56.6 106.9 51.5C107.8 50.4001 108.6 49.2001 109.6 47.8001C106 47.8001 101.5 47.8001 90.2999 47.8001C88.1999 47.8001 87.6999 46.5001 88.3999 44.8001C89.6999 41.7001 92.0999 36.5 93.4999 33.9001C93.7999 33.3001 94.4999 32.3001 95.9999 32.3001C101.1 32.3001 119.9 32.3001 132.4 32.3001C132.2 35.0001 132.2 37.7001 131.8 40.4001C130.7 47.6001 128 54.2001 123.6 60C116.4 69.5 107 75.4001 95.0999 77.0001C85.2999 78.3001 76.1999 76.4 68.1999 70.4C60.7999 64.8 56.5999 57.4 55.4999 48.2C54.1999 37.3 57.3999 27.5001 63.9999 18.9001C71.0999 9.60005 80.4999 3.70005 91.9999 1.60005C101.4 -0.0999509 110.4 1.00005 118.5 6.50005C123.8 10.0001 127.6 14.8 130.1 20.6C130.7 21.5 130.3 22.0001 129.1 22.3001Z" fill="#00ACD7"/>
<path d="M162.2 77.5999C153.1 77.3999 144.8 74.7999 137.8 68.7999C131.9 63.6999 128.2 57.1998 127 49.4998C125.2 38.1998 128.3 28.1999 135.1 19.2999C142.4 9.69985 151.2 4.69985 163.1 2.59985C173.3 0.799847 182.9 1.79985 191.6 7.69985C199.5 13.0998 204.4 20.3998 205.7 29.9998C207.4 43.4998 203.5 54.4998 194.2 63.8998C187.6 70.5998 179.5 74.7998 170.2 76.6998C167.5 77.1998 164.8 77.2999 162.2 77.5999ZM186 37.1998C185.9 35.8998 185.9 34.8998 185.7 33.8998C183.9 23.9998 174.8 18.3998 165.3 20.5998C156 22.6998 150 28.5998 147.8 37.9998C146 45.7998 149.8 53.6998 157 56.8998C162.5 59.2998 168 58.9999 173.3 56.2999C181.2 52.1999 185.5 45.7998 186 37.1998Z" fill="#00ACD7"/>
</svg>
