<svg width="252" height="42" viewBox="0 0 252 42" fill="none" xmlns="http://www.w3.org/2000/svg">
<path fill-rule="evenodd" clip-rule="evenodd" d="M16.148 0.955082H24.1577V28.8625C24.1577 32.7967 23.0209 35.9174 20.7472 38.2247C18.4735 40.5319 15.6102 41.6855 12.1573 41.6855C8.42127 41.6855 5.46365 40.656 3.28432 38.597C1.10498 36.5379 0.0530707 33.5045 0.128545 29.4967L0.213454 29.3313H8.05335C8.05335 31.4455 8.43543 32.9897 9.19961 33.9641C9.9638 34.9385 10.9497 35.4257 12.1573 35.4257C13.2516 35.4257 14.1904 34.8466 14.9734 33.6883C15.7565 32.5301 16.148 30.9215 16.148 28.8625V0.955082ZM46.4374 32.5853H35.5691L33.3615 41.1064H25.2386L36.8427 0.955082H45.2204L56.7963 41.1064H48.6733L46.4374 32.5853ZM37.2107 26.2703H44.7959L41.0882 12.0684H40.9184L37.2107 26.2703ZM68.4624 0.955082L75.8495 30.4343H76.0193L83.4912 0.955082H93.9916V41.1064H85.9819V29.4416L86.6612 13.8333L86.4913 13.8057L78.6232 41.1064H73.2739L65.4906 14.0263L65.3208 14.0539L66.0284 29.4416V41.1064H58.0187V0.955082H68.4624ZM125.526 31.4822C125.526 28.9636 124.578 26.9505 122.682 25.443C120.786 23.9355 117.498 22.5567 112.818 21.3065C108.12 20.0748 104.681 18.673 102.502 17.1011C100.323 15.5292 99.233 13.2358 99.233 10.2208C99.233 7.22412 100.516 4.83418 103.082 3.05089C105.648 1.26761 108.922 0.375977 112.903 0.375977C116.922 0.375977 120.205 1.46983 122.753 3.65758C125.3 5.84532 126.536 8.65809 126.46 12.096L126.404 12.2614H125.102C125.102 9.26477 123.97 6.78292 121.705 4.81579C119.441 2.84866 116.507 1.86511 112.903 1.86511C109.167 1.86511 106.21 2.6786 104.03 4.30562C101.851 5.93264 100.761 7.88596 100.761 10.1656C100.761 12.4453 101.662 14.3389 103.464 15.8464C105.266 17.3539 108.526 18.6959 113.243 19.8725C117.809 21.0491 121.257 22.4877 123.588 24.1883C125.918 25.8888 127.083 28.3017 127.083 31.4271C127.083 34.6076 125.753 37.1124 123.092 38.9417C120.432 40.7709 117.102 41.6855 113.101 41.6855C108.969 41.6855 105.412 40.7433 102.431 38.8589C99.45 36.9745 98.0066 34.0101 98.1009 29.9655L98.1575 29.8001H99.4311C99.4311 33.4402 100.809 36.0829 103.563 37.7283C106.318 39.3737 109.497 40.1964 113.101 40.1964C116.724 40.1964 119.701 39.3875 122.031 37.7697C124.361 36.1518 125.526 34.056 125.526 31.4822ZM156.641 6.55417C156.641 6.75506 156.563 6.9392 156.409 7.10661C156.254 7.27401 156.074 7.35771 155.867 7.35771H143.909V40.3531C143.909 40.554 143.823 40.7298 143.651 40.8804C143.48 41.0311 143.291 41.1064 143.084 41.1064C142.878 41.1064 142.689 41.0395 142.517 40.9055C142.346 40.7716 142.26 40.5875 142.26 40.3531V7.35771H130.25C130.044 7.35771 129.863 7.27401 129.709 7.10661C129.554 6.9392 129.477 6.75506 129.477 6.55417C129.477 6.35329 129.546 6.16077 129.683 5.97663C129.82 5.79248 130.009 5.70041 130.25 5.70041H155.867C156.108 5.70041 156.297 5.79248 156.434 5.97663C156.572 6.16077 156.641 6.35329 156.641 6.55417ZM180.033 29.1106H159.882L155.297 41.1064H153.627L169.023 0.955082H170.891L186.316 41.1064H184.647L180.033 29.1106ZM160.448 27.6215H179.467L170.835 5.00882L170.042 2.74755H169.872L169.108 5.00882L160.448 27.6215ZM216.47 28.8073L216.526 28.9728C216.602 33.0909 215.324 36.2392 212.691 38.4177C210.059 40.5963 206.592 41.6855 202.29 41.6855C197.78 41.6855 194.167 40.0631 191.45 36.8183C188.733 33.5734 187.374 29.3129 187.374 24.0366V18.0249C187.374 12.767 188.733 8.51105 191.45 5.25701C194.167 2.00297 197.78 0.375977 202.29 0.375977C206.592 0.375977 210.059 1.46983 212.691 3.65758C215.324 5.84532 216.602 8.97062 216.526 13.0336L216.47 13.199H215.168C215.168 9.5773 214.012 6.78292 211.701 4.81579C209.389 2.84866 206.252 1.86511 202.29 1.86511C198.271 1.86511 195.035 3.34503 192.582 6.30492C190.129 9.2648 188.903 13.153 188.903 17.9698V24.0366C188.903 28.9084 190.129 32.8197 192.582 35.7704C195.035 38.7211 198.271 40.1964 202.29 40.1964C206.252 40.1964 209.389 39.2496 211.701 37.356C214.012 35.4624 215.168 32.6129 215.168 28.8073H216.47ZM230.689 21.4995H224.377V41.1064H222.849V0.955082H224.377V20.038H231.113L248.604 0.955082H250.416L250.472 1.09296L232.387 20.9756L251.774 40.941L251.689 41.1064H249.906L230.689 21.4995Z" fill="#4A4A4A"/>
<path fill-rule="evenodd" clip-rule="evenodd" d="M156.383 1.68301C156.383 1.88389 156.306 2.05967 156.151 2.21033C155.996 2.36099 155.816 2.43633 155.61 2.43633H130.25C130.044 2.43633 129.863 2.36099 129.709 2.21033C129.554 2.05967 129.477 1.88389 129.477 1.68301C129.477 1.48212 129.554 1.30635 129.709 1.15568C129.863 1.00502 130.044 0.929688 130.25 0.929688H155.61C155.816 0.929688 155.996 1.00502 156.151 1.15568C156.306 1.30635 156.383 1.48212 156.383 1.68301Z" fill="url(#paint0_linear)"/>
<defs>
<linearGradient id="paint0_linear" x1="129.681" y1="0.929688" x2="129.846" y2="3.911" gradientUnits="userSpaceOnUse">
<stop stop-color="#20C6B7"/>
<stop offset="1" stop-color="#4D9ABF"/>
</linearGradient>
</defs>
</svg>
