<svg width="268" height="78" viewBox="0 0 268 78" fill="none" xmlns="http://www.w3.org/2000/svg">
<g clip-path="url(#clip0)">
<path d="M101.036 33.2263C101.036 24.9622 98.6656 20.7735 93.9807 20.5471C92.118 20.4339 90.3117 20.7735 88.5055 21.4527C87.0944 21.9622 86.1348 22.4716 85.6268 22.981V42.6791C88.6184 44.5471 91.2713 45.4527 93.5855 45.2829C98.6091 44.8867 101.036 40.8678 101.036 33.2263ZM106.85 33.5659C106.85 37.7546 105.891 41.2074 103.915 43.981C101.714 47.0942 98.6656 48.7357 94.7709 48.7923C91.8357 48.9056 88.8442 47.9433 85.6833 46.0188V63.9056L80.6597 62.0942V22.415C81.5063 21.3961 82.5224 20.5471 83.8206 19.8112C86.8122 18.0565 90.4246 17.1508 94.7144 17.0942L94.7709 17.1508C98.6656 17.0942 101.714 18.7357 103.802 21.9622C105.834 25.0188 106.85 28.8678 106.85 33.5659Z" fill="#646464"/>
<path d="M137.556 45.2829C137.556 50.8867 136.992 54.7923 135.863 56.9433C134.734 59.0942 132.589 60.849 129.428 62.0942C126.832 63.1131 124.066 63.6791 121.074 63.7357L120.227 60.5659C123.276 60.1697 125.42 59.7169 126.606 59.3207C129.033 58.4716 130.726 57.2263 131.629 55.5282C132.363 54.1697 132.702 51.5093 132.702 47.6037V46.3018C129.259 47.8867 125.646 48.6225 121.864 48.6225C119.381 48.6225 117.179 47.8301 115.317 46.3018C113.228 44.6037 112.156 42.4527 112.156 39.7924V18.849L117.179 17.0942V38.2074C117.179 40.4716 117.913 42.2263 119.381 43.415C120.848 44.6603 122.711 45.2263 125.025 45.1697C127.34 45.1131 129.823 44.2074 132.42 42.4527V17.8867H137.443V45.2829H137.556Z" fill="#646464"/>
<path d="M157.199 48.5095C156.578 48.5661 156.07 48.5661 155.562 48.5661C152.74 48.5661 150.482 47.8869 148.901 46.5284C147.321 45.1699 146.531 43.302 146.531 40.868V21.0567H143.088V17.8869H146.531V9.45292L151.554 7.6416V17.8869H157.199V21.0567H151.554V40.7548C151.554 42.6227 152.062 43.9812 153.078 44.7737C153.925 45.3963 155.336 45.7925 157.199 45.9057V48.5095Z" fill="#646464"/>
<path d="M187.623 48.1132H182.599V28.6415C182.599 26.6604 182.147 24.9623 181.244 23.5472C180.172 21.9623 178.704 21.1132 176.842 21.1132C174.527 21.1132 171.649 22.3585 168.206 24.7925V48.1132H163.126V1.58491L168.149 0V21.1698C171.366 18.8491 174.866 17.6604 178.704 17.6604C181.357 17.6604 183.502 18.566 185.195 20.3774C186.832 22.1887 187.679 24.3962 187.679 27.0566V48.1132H187.623Z" fill="#646464"/>
<path d="M214.377 32.4339C214.377 29.264 213.757 26.6603 212.571 24.5659C211.16 22.0188 208.959 20.7169 205.967 20.6037C200.436 20.9433 197.726 24.9056 197.726 32.4905C197.726 35.9999 198.291 38.8867 199.476 41.2074C200.944 44.2074 203.145 45.6225 206.137 45.6225C211.612 45.5093 214.377 41.1508 214.377 32.4339ZM219.853 32.4339C219.853 36.9622 218.724 40.698 216.409 43.698C213.869 47.0376 210.37 48.7357 205.967 48.7357C201.564 48.7357 198.121 47.0376 195.638 43.698C193.38 40.698 192.251 36.9622 192.251 32.4339C192.251 28.1886 193.493 24.6225 195.92 21.7357C198.516 18.6791 201.847 17.0942 206.024 17.0942C210.201 17.0942 213.587 18.6225 216.24 21.7357C218.667 24.6225 219.853 28.1886 219.853 32.4339Z" fill="#646464"/>
<path d="M248.696 48.1131H243.672V27.5659C243.672 25.3018 242.995 23.5471 241.64 22.3018C240.286 21.0565 238.479 20.4339 236.222 20.4905C233.851 20.5471 231.537 21.3395 229.392 22.8112V48.1131H224.368V22.132C227.247 20.0376 229.9 18.6225 232.383 17.9999C234.698 17.3773 236.73 17.0942 238.423 17.0942C239.608 17.0942 240.737 17.2074 241.81 17.4339C243.785 17.8867 245.366 18.7357 246.607 19.981C247.962 21.3395 248.696 23.0376 248.696 24.9622V48.1131Z" fill="#646464"/>
<path d="M30.9882 1.75488C28.3918 1.75488 25.9082 1.9813 23.7633 2.37752C17.385 3.5096 16.1997 5.88696 16.1997 10.2454V16.019H31.3269V17.9436H16.1997H10.4987C6.09605 17.9436 2.2578 20.6039 1.01601 25.6417C-0.395108 31.4153 -0.451553 35.0379 1.01601 41.0379C2.08846 45.5096 4.68493 48.736 9.03118 48.736H14.2241V41.887C14.2241 36.9058 18.5704 32.4341 23.7068 32.4341H38.834C43.0674 32.4341 46.3977 28.9813 46.3977 24.736V10.3021C46.3977 6.16998 42.9545 3.11337 38.834 2.43413C36.294 1.9813 33.5847 1.75488 30.9882 1.75488ZM22.8037 6.453C24.3842 6.453 25.626 7.75488 25.626 9.33979C25.626 10.9247 24.3277 12.2266 22.8037 12.2266C21.2233 12.2266 19.9815 10.9247 19.9815 9.33979C19.9815 7.75488 21.2233 6.453 22.8037 6.453Z" fill="url(#paint0_linear)"/>
<path d="M48.3167 18V24.7358C48.3167 29.9434 43.9141 34.3585 38.834 34.3585H23.7633C19.6428 34.3585 16.1996 37.9245 16.1996 42.0566V56.4906C16.1996 60.6226 19.7557 63 23.7633 64.1887C28.5611 65.6038 33.1331 65.8302 38.8905 64.1887C42.7287 63.0566 46.4541 60.8491 46.4541 56.4906V50.717H31.3269V48.7924H46.4541H54.0177C58.4204 48.7924 60.0573 45.7358 61.5813 41.0943C63.1617 36.3396 63.1053 31.7547 61.5813 25.6981C60.5088 21.283 58.4204 18 54.0177 18H48.3167ZM39.85 54.566C41.4305 54.566 42.6723 55.8679 42.6723 57.4528C42.6723 59.0377 41.374 60.3396 39.85 60.3396C38.2696 60.3396 37.0278 59.0377 37.0278 57.4528C36.9713 55.8679 38.2696 54.566 39.85 54.566Z" fill="url(#paint1_linear)"/>
<path d="M258.517 13.3587H259.42V7.81157H261.509V7.13232H256.429V7.81157H258.517V13.3587ZM262.243 13.3587H262.976V8.321L264.613 13.3587H265.46L267.153 8.321V13.3587H268V7.13232H266.928L265.065 12.4531L263.484 7.13232H262.243V13.3587Z" fill="#646464"/>
<path opacity="0.4438" d="M51.7599 74.0379C51.7599 76.1889 42.6723 78.0002 31.4962 78.0002C20.3202 78.0002 11.2325 76.2455 11.2325 74.0379C11.2325 71.887 20.3202 70.0757 31.4962 70.0757C42.6723 70.0757 51.7599 71.887 51.7599 74.0379Z" fill="url(#paint2_radial)"/>
</g>
<defs>
<linearGradient id="paint0_linear" x1="-1.54843" y1="3.58888" x2="33.4331" y2="33.3107" gradientUnits="userSpaceOnUse">
<stop stop-color="#5A9FD4"/>
<stop offset="1" stop-color="#306998"/>
</linearGradient>
<linearGradient id="paint1_linear" x1="46.4461" y1="51.9958" x2="33.8782" y2="34.436" gradientUnits="userSpaceOnUse">
<stop stop-color="#FFD43B"/>
<stop offset="1" stop-color="#FFE873"/>
</linearGradient>
<radialGradient id="paint2_radial" cx="0" cy="0" r="1" gradientUnits="userSpaceOnUse" gradientTransform="translate(31.5085 74.011) rotate(-90) scale(3.94299 17.2863)">
<stop stop-color="#B8B8B8" stop-opacity="0.498"/>
<stop offset="1" stop-color="#7F7F7F" stop-opacity="0"/>
</radialGradient>
<clipPath id="clip0">
<rect width="268" height="78" fill="white"/>
</clipPath>
</defs>
</svg>
