<svg width="152" height="135" viewBox="0 0 152 135" fill="none" xmlns="http://www.w3.org/2000/svg">
<path d="M151.132 67.5154C151.132 57.5967 138.677 48.1723 119.561 42.3323C123.961 22.8965 122.009 7.44676 113.365 2.50283C111.382 1.35955 109.058 0.80336 106.549 0.80336V0.772461C102.335 0.772461 97.4708 2.25564 92.2657 5.06749C87.0607 7.84845 81.5148 11.9581 75.938 17.1492C64.7843 6.82877 53.7545 0.896059 45.3273 0.896059V0.926959C44.026 0.926959 42.8177 1.05056 41.6713 1.35955C40.525 1.63765 39.4406 2.07024 38.4182 2.65733C29.8051 7.60125 27.8841 23.051 32.3146 42.3941C13.2604 48.265 0.867432 57.6276 0.867432 67.5463C0.867432 77.4651 13.3224 86.8894 32.4386 92.7294C28.0391 112.165 29.991 127.615 38.6351 132.559C40.6179 133.733 42.9416 134.258 45.5132 134.258C53.9404 134.258 64.9702 128.264 76.1238 117.882C87.2775 128.202 98.3073 134.135 106.735 134.135C109.306 134.135 111.63 133.579 113.644 132.435C122.257 127.491 124.178 112.042 119.747 92.6985C138.739 86.8276 151.132 77.4033 151.132 67.5154ZM106.518 7.57035C107.912 7.60125 109.058 7.87935 110.019 8.40464C114.17 10.7839 115.998 19.8684 114.573 31.5484C114.232 34.422 113.675 37.4502 113.024 40.5401C107.013 39.0879 100.476 37.9446 93.567 37.203C89.4463 31.5484 85.1398 26.4191 80.8332 21.9386C90.7786 12.6688 100.135 7.57035 106.518 7.57035ZM48.8593 83.1506C50.2845 85.5916 51.7716 87.9709 53.2588 90.2884C48.9212 89.6395 44.7076 88.867 40.7109 87.8782C41.8572 83.9231 43.2514 79.8752 44.8316 75.7965C46.1018 78.2685 47.4031 80.7095 48.8593 83.1506ZM40.6179 47.1217C44.6457 46.1639 48.8593 45.3605 53.2278 44.7116C51.7406 47.0599 50.2225 49.4701 48.8283 51.9421C47.4341 54.3831 46.1018 56.8242 44.8316 59.2653C43.1895 55.2174 41.7953 51.1078 40.6179 47.1217ZM48.4255 67.6081C50.3155 63.5294 52.4842 59.4198 54.7769 55.4028C57.1626 51.2932 59.6102 47.3689 62.1508 43.7228C66.7052 43.3211 71.3526 43.1048 75.9999 43.1048C80.6163 43.1048 85.2637 43.3211 89.7871 43.6919C92.3277 47.338 94.8063 51.2005 97.1919 55.3101C99.5156 59.327 101.622 63.3749 103.574 67.4845C101.653 71.5633 99.5156 75.6729 97.2229 79.6898C94.8373 83.7995 92.3897 87.7237 89.8491 91.3699C85.2947 91.7715 80.6473 91.9878 75.9999 91.9878C71.3835 91.9878 66.7362 91.7715 62.2127 91.4007C59.6722 87.7546 57.1936 83.8922 54.8079 79.7825C52.4842 75.7656 50.3464 71.6869 48.4255 67.6081ZM103.141 83.0579C104.535 80.6168 105.867 78.1449 107.137 75.7038C108.779 79.7825 110.205 83.8922 111.351 87.8782C107.323 88.867 103.11 89.6704 98.7411 90.3193C100.228 87.94 101.746 85.5298 103.141 83.0579ZM103.11 51.8803C101.715 49.4392 100.197 47.0599 98.7101 44.7425C103.048 45.3914 107.261 46.1639 111.258 47.1526C110.112 51.1078 108.717 55.1556 107.137 59.2343C105.867 56.7624 104.566 54.3213 103.11 51.8803ZM84.4272 36.4923C81.6697 36.3687 78.8503 36.276 75.9999 36.276C73.1186 36.276 70.2682 36.3378 67.4797 36.4923C70.2372 32.908 73.0876 29.6635 75.907 26.7281C78.7574 29.6635 81.6077 32.9389 84.4272 36.4923ZM41.8263 8.52824C42.7557 7.97205 43.9331 7.72485 45.3583 7.72485V7.69395C51.7097 7.69395 61.0974 12.7306 71.1047 21.9386C66.8291 26.4191 62.5225 31.5175 58.4638 37.1721C51.5548 37.9137 44.9865 39.0261 38.9759 40.5401C38.2633 37.4811 37.7366 34.5147 37.3958 31.672C35.9086 19.992 37.6746 10.9384 41.8263 8.52824ZM34.0806 86.086C31.0444 85.1282 28.163 84.1085 25.4985 82.9652C14.6546 78.3612 7.65259 72.3048 7.65259 67.5154C7.65259 62.726 14.6546 56.6388 25.4985 52.0657C28.132 50.9224 31.0134 49.9336 33.9877 48.9757C35.7227 54.9702 38.0464 61.2119 40.8658 67.5772C38.0774 73.9425 35.8157 80.1224 34.0806 86.086ZM45.4512 127.46C44.088 127.43 42.9106 127.151 41.9812 126.626C37.8295 124.247 36.0016 115.162 37.4267 103.482C37.7676 100.609 38.3252 97.5807 38.9759 94.4907C44.9865 95.943 51.5238 97.0863 58.4329 97.8279C62.5535 103.482 66.8601 108.612 71.1667 113.092C61.1903 122.393 51.8336 127.46 45.4512 127.46ZM76.0619 108.303C73.2115 105.367 70.3611 102.092 67.5417 98.5385C70.2991 98.6621 73.1186 98.7548 75.9689 98.7548C78.8503 98.7548 81.7007 98.693 84.4891 98.5385C81.7317 102.092 78.8813 105.367 76.0619 108.303ZM110.174 126.503C109.244 127.059 108.067 127.306 106.642 127.306C100.29 127.306 90.9025 122.269 80.8952 113.061C85.1707 108.581 89.4773 103.482 93.536 97.8279C100.445 97.0863 107.013 95.9739 113.024 94.4598C113.737 97.5498 114.294 100.516 114.604 103.359C116.091 115.039 114.325 124.092 110.174 126.503ZM126.47 82.9652C123.837 84.1085 120.955 85.0972 117.981 86.0551C116.246 80.0606 113.922 73.8189 111.103 67.4536C113.922 61.0883 116.184 54.9084 117.919 48.9448C120.955 49.9027 123.837 50.9224 126.532 52.0657C137.376 56.6697 144.378 62.726 144.378 67.5154C144.316 72.3048 137.314 78.3921 126.47 82.9652Z" fill="#61DAFB"/>
<path d="M75.9689 81.482C83.7032 81.482 89.973 75.2289 89.973 67.5154C89.973 59.8019 83.7032 53.5488 75.9689 53.5488C68.2347 53.5488 61.9648 59.8019 61.9648 67.5154C61.9648 75.2289 68.2347 81.482 75.9689 81.482Z" fill="#61DAFB"/>
</svg>
